<svg width="613" height="395" viewBox="0 0 613 395" fill="none" xmlns="http://www.w3.org/2000/svg">
<path opacity="0.1" d="M306.5 326C475.775 326 613 322.418 613 318C613 313.582 475.775 310 306.5 310C137.225 310 0 313.582 0 318C0 322.418 137.225 326 306.5 326Z" fill="#438BAC"/>
<path opacity="0.1" d="M306.5 395C475.775 395 613 391.194 613 386.5C613 381.806 475.775 378 306.5 378C137.225 378 0 381.806 0 386.5C0 391.194 137.225 395 306.5 395Z" fill="#438BAC"/>
<path opacity="0.1" d="M306.5 255C475.775 255 613 251.194 613 246.5C613 241.806 475.775 238 306.5 238C137.225 238 0 241.806 0 246.5C0 251.194 137.225 255 306.5 255Z" fill="#438BAC"/>
<path opacity="0.1" d="M452.952 20.6921L444.248 26.555L449.566 16.3374C448.069 15.0696 446.216 14.3696 444.302 14.3485H444.16C443.566 14.3571 442.973 14.3098 442.387 14.2071L439.391 16.196L440.659 13.7452C438.564 12.9744 436.755 11.5153 435.491 9.57901L430.173 13.142L433.506 6.69469C430.422 2.75468 426.256 0.341644 421.683 0.341644C416.187 0.341644 411.304 3.81037 408.139 9.22082C407.207 10.8386 405.888 12.1651 404.317 13.0657C402.747 13.9663 400.98 14.4089 399.196 14.3485H398.904C392.841 14.3485 387.931 21.6536 387.931 30.6647C387.931 39.6759 392.841 46.9903 398.904 46.9903C400.236 46.9809 401.546 46.6318 402.724 45.9723C404.788 44.9026 407.046 44.3232 409.342 44.2743C411.638 44.2255 413.916 44.7084 416.019 45.6896C417.794 46.5375 419.719 46.9758 421.665 46.9758C423.611 46.9758 425.535 46.5375 427.311 45.6896C429.397 44.7304 431.652 44.2585 433.924 44.3056C436.196 44.3528 438.432 44.9179 440.481 45.9629C441.647 46.6116 442.942 46.9542 444.257 46.962C450.32 46.962 455.23 39.6476 455.23 30.6364C455.267 27.171 454.483 23.7514 452.952 20.6921Z" fill="#438BAC"/>
<path opacity="0.1" d="M315.545 54.1823L309.456 58.292L313.152 51.1377C312.107 50.2483 310.812 49.7571 309.473 49.7427H309.367C308.945 49.7507 308.524 49.716 308.108 49.639L306.043 51.034L306.93 49.3185C305.466 48.777 304.2 47.7577 303.313 46.4059L299.617 48.8944L301.957 44.3888C300.975 43.0393 299.722 41.9392 298.29 41.1681C296.859 40.397 295.283 39.9742 293.679 39.9304C289.832 39.9304 286.411 42.3622 284.204 46.1514C283.55 47.2843 282.626 48.2132 281.526 48.8439C280.425 49.4746 279.187 49.7847 277.938 49.7427H277.734C273.489 49.7427 270.05 54.8515 270.05 61.1668C270.05 67.4822 273.489 72.591 277.734 72.591C278.662 72.5834 279.574 72.3376 280.393 71.8747C281.836 71.13 283.414 70.7275 285.018 70.695C286.622 70.6624 288.213 71.0006 289.682 71.6861C290.932 72.2924 292.287 72.6135 293.661 72.6287C295.014 72.6262 296.351 72.3244 297.588 71.7427C299.047 71.0709 300.626 70.7401 302.216 70.7726C303.806 70.8051 305.371 71.2002 306.806 71.9312C307.626 72.3883 308.538 72.6276 309.465 72.6287C313.701 72.6287 317.14 67.5105 317.14 61.2046C317.176 58.7579 316.627 56.3416 315.545 54.1823Z" fill="#438BAC"/>
<path opacity="0.1" d="M186.735 32.4368C188.95 31.9919 191.239 32.2577 193.311 33.2003C194.555 33.7909 195.902 34.0961 197.264 34.0961C198.627 34.0961 199.974 33.7909 201.217 33.2003C202.688 32.5145 204.28 32.1763 205.886 32.2088C207.491 32.2413 209.07 32.644 210.515 33.3888C211.334 33.8528 212.246 34.0986 213.174 34.1051C216.941 34.1051 220.078 30.0614 220.725 24.7358C219.974 24.1517 219.336 23.4188 218.846 22.5773C216.631 18.8069 213.209 16.3656 209.372 16.3656C205.534 16.3656 202.148 18.7598 199.932 22.5113C199.274 23.6427 198.352 24.5739 197.256 25.2147C196.159 25.8555 194.926 26.1841 193.675 26.1686H193.577C190.59 26.1874 187.985 28.7418 186.735 32.4368Z" fill="#438BAC"/>
<path opacity="0.1" d="M175.011 17.4119L181.109 21.5216L177.404 14.3768C178.451 13.4845 179.749 12.9902 181.091 12.9723H181.189C181.613 12.9788 182.037 12.9473 182.456 12.8781L184.521 14.2637L183.635 12.5576C185.096 12.0149 186.358 10.9956 187.242 9.64498L190.938 12.1334L188.634 7.61842C189.617 6.27021 190.87 5.17151 192.302 4.40201C193.733 3.6325 195.308 3.21147 196.912 3.1694C200.75 3.1694 204.18 5.60129 206.387 9.3905C207.04 10.522 207.963 11.45 209.062 12.0806C210.161 12.7112 211.396 13.022 212.644 12.9818H212.857C217.094 12.9818 220.533 18.1 220.533 24.4059C220.533 30.7118 217.094 35.8301 212.857 35.8301C211.93 35.8257 211.018 35.5832 210.198 35.1232C208.755 34.3744 207.175 33.9688 205.57 33.9346C203.964 33.9004 202.371 34.2385 200.901 34.9252C199.655 35.5367 198.301 35.8581 196.93 35.8678C195.574 35.8666 194.234 35.5648 192.995 34.9818C191.536 34.3102 189.96 33.9794 188.371 34.0119C186.782 34.0445 185.218 34.4395 183.786 35.1703C182.965 35.6274 182.053 35.8667 181.127 35.8678C176.881 35.8678 173.442 30.759 173.442 24.4436C173.401 21.9967 173.94 19.5783 175.011 17.4119Z" fill="#438BAC"/>
<path d="M393.524 315.411C395.837 310.849 393.214 305.269 390.2 301.206C387.187 297.144 383.5 292.912 383.579 287.737C383.695 280.3 391.122 275.898 397.051 271.958C401.455 269.022 405.516 265.541 409.15 261.589C410.669 260.068 411.926 258.275 412.863 256.292C414.095 253.389 414.06 250.071 413.98 246.866C413.726 236.253 413.233 225.645 412.5 215.044" stroke="#3F3D56" stroke-width="4" stroke-miterlimit="10"/>
<path d="M423.783 214.517C423.697 212.572 423.153 210.682 422.201 209.02C421.248 207.358 419.918 205.978 418.332 205.006L415.886 210.143L415.966 203.922C413.747 203.227 411.378 203.3 409.201 204.13C407.024 204.96 405.152 206.505 403.854 208.54C402.556 210.576 401.9 212.998 401.98 215.456C402.06 217.914 402.873 220.281 404.301 222.216C405.728 224.151 407.697 225.553 409.923 226.221C412.149 226.888 414.517 226.786 416.684 225.929C418.852 225.073 420.708 223.505 421.984 221.454C423.26 219.403 423.89 216.973 423.783 214.517Z" fill="#438BAC"/>
<path d="M404.319 293.053C403.222 295.322 401.452 297.143 399.283 298.234C397.114 299.325 394.668 299.625 392.322 299.088C389.977 298.552 387.863 297.208 386.308 295.265C384.754 293.322 383.844 290.888 383.721 288.34C383.639 286.733 383.881 285.127 384.43 283.627C385.234 281.44 386.642 279.564 388.468 278.245C390.295 276.927 392.455 276.228 394.662 276.241C396.87 276.255 399.022 276.979 400.835 278.32C402.647 279.66 404.035 281.553 404.816 283.75L398 289.65L405.498 287.765C405.507 289.603 405.103 291.415 404.319 293.053Z" fill="#438BAC"/>
<path d="M398.93 270.525C396.253 270.659 393.622 269.741 391.541 267.944C389.46 266.147 388.073 263.599 387.646 260.785C387.219 257.97 387.78 255.087 389.224 252.685C390.668 250.283 392.893 248.531 395.474 247.762L395.412 252.541L397.885 247.338C400.776 247.194 403.603 248.277 405.743 250.35C407.883 252.423 409.161 255.315 409.296 258.389C409.431 261.464 408.412 264.47 406.463 266.746C404.514 269.022 401.795 270.382 398.904 270.525H398.93Z" fill="#438BAC"/>
<path d="M425.423 251.777C423.731 251.87 422.042 251.543 420.49 250.821C418.938 250.1 417.565 249.004 416.48 247.621C415.395 246.237 414.628 244.604 414.24 242.851C413.851 241.097 413.852 239.272 414.242 237.519C414.632 235.765 415.4 234.133 416.486 232.75C417.572 231.368 418.946 230.273 420.499 229.553C422.051 228.833 423.74 228.507 425.432 228.602C427.123 228.696 428.771 229.208 430.244 230.098L428.321 235.753L432.247 231.625C433.836 233.173 434.957 235.187 435.47 237.412C435.984 239.637 435.866 241.974 435.133 244.129C434.399 246.283 433.082 248.158 431.348 249.518C429.613 250.877 427.539 251.66 425.387 251.768L425.423 251.777Z" fill="#438BAC"/>
<path opacity="0.1" d="M422.312 217.608C419.795 217.901 417.348 218.73 414.813 218.9C412.279 219.069 409.495 218.419 407.918 216.336C407.176 215.122 406.501 213.863 405.897 212.565C405.208 211.422 404.264 210.476 403.149 209.813C402.443 211.284 402.041 212.897 401.968 214.547C401.896 216.196 402.155 217.843 402.729 219.377C403.303 220.911 404.178 222.297 405.296 223.443C406.413 224.589 407.748 225.468 409.211 226.021C410.674 226.574 412.231 226.789 413.778 226.651C415.325 226.514 416.827 226.026 418.183 225.222C419.538 224.418 420.717 223.315 421.64 221.987C422.563 220.66 423.209 219.138 423.535 217.523C423.136 217.533 422.72 217.561 422.312 217.608Z" fill="black"/>
<path opacity="0.1" d="M425.423 251.777C423.541 251.872 421.669 251.447 419.988 250.544C418.307 249.641 416.874 248.291 415.829 246.624C414.784 244.958 414.163 243.032 414.025 241.035C413.888 239.037 414.239 237.036 415.044 235.225C415.909 235.847 416.652 236.641 417.233 237.563C417.885 238.884 418.607 240.165 419.396 241.399C421.097 243.52 424.005 244.227 426.637 244.086C429.269 243.944 431.813 243.143 434.437 242.907C434.8 242.907 435.163 242.851 435.536 242.841C434.993 245.298 433.712 247.499 431.887 249.111C430.062 250.724 427.793 251.66 425.423 251.777Z" fill="black"/>
<path opacity="0.1" d="M398.93 270.525C397.069 270.618 395.215 270.202 393.548 269.317C391.88 268.432 390.453 267.107 389.404 265.469C388.354 263.831 387.716 261.934 387.552 259.96C387.387 257.985 387.701 255.999 388.463 254.19C389.362 254.82 390.146 255.618 390.776 256.547C391.491 257.9 392.281 259.206 393.143 260.458C394.977 262.636 398.08 263.409 400.863 263.286C403.646 263.164 406.181 262.523 408.84 262.344C408.178 264.624 406.872 266.633 405.099 268.097C403.326 269.561 401.172 270.409 398.93 270.525Z" fill="black"/>
<path opacity="0.1" d="M404.319 293.053C403.222 295.322 401.452 297.143 399.283 298.234C397.114 299.325 394.668 299.625 392.322 299.088C389.977 298.552 387.863 297.208 386.308 295.265C384.754 293.322 383.844 290.888 383.721 288.34C383.639 286.733 383.881 285.127 384.43 283.627C385.329 284.255 386.135 285.02 386.823 285.899C387.86 287.237 388.543 288.727 389.748 290.018C391.973 292.346 395.58 293.308 398.78 293.392C400.631 293.398 402.481 293.285 404.319 293.053Z" fill="black"/>
<path d="M212.899 169.904C210.586 165.351 213.209 159.771 216.232 155.708C219.254 151.646 222.924 147.414 222.844 142.239C222.737 134.792 215.31 130.4 209.372 126.46C204.97 123.525 200.912 120.045 197.282 116.091C195.755 114.579 194.495 112.788 193.56 110.804C192.336 107.891 192.372 104.583 192.443 101.378C192.709 90.7642 193.202 80.1569 193.923 69.5559" stroke="#3F3D56" stroke-width="4" stroke-miterlimit="10"/>
<path d="M182.649 69.0186C182.733 67.075 183.275 65.1852 184.226 63.5231C185.177 61.8611 186.506 60.4802 188.091 59.5079L190.537 64.645L190.466 58.4239C191.631 58.0639 192.844 57.908 194.056 57.9621C196.211 58.0689 198.288 58.8529 200.025 60.2151C201.761 61.5772 203.079 63.4563 203.811 65.6148C204.543 67.7732 204.657 70.1141 204.139 72.3415C203.62 74.5689 202.492 76.5828 200.898 78.1285C199.303 79.6742 197.313 80.6824 195.18 81.0255C193.046 81.3687 190.865 81.0314 188.912 80.0563C186.959 79.0813 185.321 77.5122 184.206 75.5476C183.092 73.5829 182.55 71.3108 182.649 69.0186Z" fill="#438BAC"/>
<path d="M202.104 147.555C203.248 149.923 205.122 151.801 207.413 152.873C209.705 153.946 212.273 154.148 214.688 153.446C217.102 152.743 219.216 151.179 220.675 149.016C222.134 146.853 222.849 144.221 222.7 141.564C222.552 138.906 221.548 136.384 219.858 134.42C218.168 132.456 215.894 131.17 213.419 130.777C210.943 130.384 208.415 130.909 206.26 132.263C204.104 133.617 202.452 135.718 201.581 138.214L208.397 144.115L200.898 142.229C200.892 144.082 201.306 145.909 202.104 147.555Z" fill="#438BAC"/>
<path d="M207.493 125.027C210.171 125.164 212.803 124.247 214.887 122.452C216.97 120.656 218.358 118.107 218.787 115.292C219.216 112.477 218.654 109.592 217.21 107.189C215.766 104.786 213.541 103.033 210.958 102.264L211.011 107.043L208.538 101.84C205.648 101.688 202.82 102.764 200.676 104.831C198.532 106.897 197.247 109.785 197.105 112.858C197.043 114.197 197.202 115.537 197.575 116.817C198.229 119.107 199.533 121.125 201.309 122.595C203.085 124.065 205.245 124.915 207.493 125.027Z" fill="#438BAC"/>
<path d="M181.009 106.26C182.701 106.352 184.389 106.024 185.94 105.301C187.492 104.579 188.864 103.482 189.948 102.098C191.031 100.714 191.798 99.0811 192.185 97.3278C192.573 95.5745 192.571 93.7493 192.181 91.9967C191.79 90.2441 191.021 88.6123 189.935 87.2304C188.849 85.8485 187.475 84.7544 185.923 84.0349C184.37 83.3154 182.681 82.9901 180.99 83.0849C179.299 83.1796 177.652 83.6918 176.179 84.5808L178.111 90.2363L174.14 86.1926C173.081 87.213 172.222 88.4463 171.614 89.8215C171.005 91.1966 170.659 92.6863 170.595 94.2046C170.542 95.2782 170.635 96.3544 170.87 97.4C171.426 99.8475 172.716 102.036 174.545 103.634C176.375 105.233 178.644 106.155 181.009 106.26Z" fill="#438BAC"/>
<path opacity="0.1" d="M184.12 72.1103C186.637 72.4025 189.084 73.232 191.61 73.4017C194.136 73.5714 196.928 72.921 198.514 70.8378C199.253 69.6238 199.925 68.3649 200.526 67.0675C201.218 65.9232 202.165 64.9779 203.283 64.3151C203.99 65.7861 204.393 67.4007 204.467 69.051C204.54 70.7012 204.281 72.3491 203.707 73.8843C203.133 75.4195 202.257 76.8067 201.139 77.953C200.02 79.0994 198.684 79.9784 197.22 80.5314C195.756 81.0844 194.198 81.2986 192.65 81.1596C191.102 81.0207 189.6 80.5317 188.244 79.7256C186.888 78.9194 185.71 77.8146 184.787 76.4851C183.865 75.1555 183.221 73.6319 182.897 72.0161C183.296 72.0255 183.704 72.0632 184.12 72.1103Z" fill="black"/>
<path opacity="0.1" d="M181.009 106.26C182.89 106.352 184.76 105.926 186.44 105.022C188.12 104.118 189.551 102.768 190.596 101.103C191.64 99.4372 192.262 97.5128 192.401 95.5164C192.539 93.52 192.191 91.5193 191.388 89.7085C190.52 90.3296 189.774 91.1234 189.19 92.0461C188.538 93.3675 187.816 94.6483 187.027 95.8824C185.334 98.0032 182.427 98.7102 179.795 98.5688C177.162 98.4274 174.619 97.6262 171.995 97.3906C171.632 97.3906 171.26 97.334 170.896 97.3246C171.438 99.7815 172.718 101.984 174.543 103.596C176.369 105.209 178.639 106.144 181.009 106.26Z" fill="black"/>
<path opacity="0.1" d="M207.493 125.027C209.355 125.123 211.21 124.708 212.879 123.824C214.548 122.94 215.976 121.615 217.026 119.976C218.076 118.337 218.713 116.439 218.877 114.464C219.041 112.488 218.725 110.501 217.96 108.692C217.062 109.32 216.281 110.119 215.656 111.049C214.941 112.402 214.151 113.708 213.289 114.96C211.446 117.138 208.352 117.911 205.56 117.788C202.768 117.666 200.242 117.025 197.583 116.846C198.242 119.129 199.547 121.14 201.321 122.604C203.094 124.068 205.25 124.915 207.493 125.027Z" fill="black"/>
<path opacity="0.1" d="M202.104 147.555C203.385 150.181 205.56 152.187 208.185 153.164C210.811 154.141 213.688 154.015 216.228 152.811C218.769 151.608 220.782 149.418 221.855 146.689C222.928 143.96 222.98 140.898 222.002 138.129C221.099 138.751 220.292 139.518 219.609 140.401C218.572 141.739 217.836 143.229 216.684 144.52C214.45 146.848 210.852 147.81 207.643 147.894C205.792 147.896 203.943 147.782 202.104 147.555Z" fill="black"/>
<path d="M448 211C478.928 211 504 185.704 504 154.5C504 123.296 478.928 98 448 98C417.072 98 392 123.296 392 154.5C392 185.704 417.072 211 448 211Z" fill="#3F3D56"/>
<path d="M475.992 176.614C473.318 173.95 466.885 169.931 463.696 168.43C460.014 166.67 458.662 166.7 456.056 168.576C453.889 170.107 452.483 171.584 449.993 171.041C447.503 170.497 442.569 166.792 437.796 162.054C433.023 157.315 429.319 152.431 428.789 149.912C428.258 147.394 429.719 146.023 431.271 143.865C433.146 141.27 433.2 139.922 431.417 136.255C429.88 133.078 425.891 126.686 423.194 124.007C420.496 121.328 419.912 121.917 418.437 122.476C416.918 123.11 415.46 123.879 414.079 124.772C411.405 126.556 409.906 128.041 408.853 130.277C407.8 132.512 406.609 136.661 412.734 147.524C417.253 155.834 422.976 163.436 429.719 170.084C436.416 176.816 444.074 182.527 452.444 187.033C463.342 193.157 467.515 191.94 469.759 190.899C472.003 189.858 473.494 188.38 475.277 185.693C476.176 184.319 476.948 182.866 477.583 181.353C478.09 179.883 478.69 179.286 475.992 176.614Z" fill="#438BAC"/>
<path d="M309 285C339.928 285 365 259.704 365 228.5C365 197.296 339.928 172 309 172C278.072 172 253 197.296 253 228.5C253 259.704 278.072 285 309 285Z" fill="#3F3D56"/>
<path d="M346.369 203.166L326.7 226.964C326.666 227.004 326.638 227.051 326.619 227.103C326.601 227.156 326.591 227.212 326.591 227.269C326.591 227.326 326.601 227.382 326.619 227.435C326.638 227.487 326.666 227.535 326.7 227.574L340.5 245.026C340.831 245.422 341.055 245.925 341.146 246.471C341.237 247.018 341.189 247.585 341.01 248.1C340.831 248.615 340.529 249.056 340.14 249.367C339.751 249.678 339.293 249.845 338.825 249.848C338.194 249.847 337.589 249.549 337.142 249.02L323.414 231.63C323.344 231.548 323.25 231.502 323.152 231.502C323.053 231.502 322.959 231.548 322.889 231.63L319.544 235.647C318.174 237.313 316.539 238.636 314.733 239.54C312.927 240.443 310.988 240.908 309.029 240.907C307.033 240.896 305.059 240.412 303.222 239.484C301.386 238.555 299.723 237.2 298.331 235.499L295.117 231.591C295.047 231.509 294.953 231.463 294.855 231.463C294.756 231.463 294.662 231.509 294.592 231.591L280.897 248.942C280.676 249.204 280.415 249.413 280.127 249.555C279.838 249.697 279.53 249.77 279.218 249.77C278.906 249.77 278.597 249.697 278.309 249.555C278.021 249.413 277.759 249.204 277.539 248.942C277.317 248.68 277.141 248.369 277.021 248.026C276.901 247.684 276.84 247.316 276.84 246.945C276.84 246.574 276.901 246.206 277.021 245.863C277.141 245.521 277.317 245.21 277.539 244.948L291.286 227.535C291.347 227.45 291.381 227.342 291.381 227.23C291.381 227.118 291.347 227.01 291.286 226.925L271.618 203.127C271.567 203.066 271.503 203.025 271.432 203.008C271.362 202.992 271.289 203 271.223 203.033C271.157 203.065 271.1 203.121 271.06 203.192C271.021 203.263 271 203.346 271 203.432V251.052C271.005 252.893 271.622 254.656 272.717 255.958C273.811 257.26 275.294 257.994 276.842 258H341.158C342.705 257.994 344.188 257.26 345.283 255.958C346.377 254.656 346.994 252.893 347 251.052V203.471C347.003 203.382 346.983 203.294 346.943 203.22C346.902 203.145 346.844 203.087 346.775 203.054C346.705 203.02 346.629 203.013 346.557 203.033C346.484 203.053 346.418 203.1 346.369 203.166Z" fill="#438BAC"/>
<path d="M309.975 231.999C311.241 232.013 312.497 231.746 313.668 231.214C314.839 230.682 315.901 229.897 316.791 228.903L344 198.376C343.034 197.494 341.821 197.008 340.567 197H279.433C278.178 197.005 276.964 197.491 276 198.376L303.215 228.903C304.097 229.891 305.15 230.674 306.311 231.205C307.472 231.737 308.718 232.007 309.975 231.999Z" fill="#438BAC"/>
<path d="M115 244C145.928 244 171 218.704 171 187.5C171 156.296 145.928 131 115 131C84.0721 131 59 156.296 59 187.5C59 218.704 84.0721 244 115 244Z" fill="#3F3D56"/>
<path d="M114.9 148L83 216.851L85.9778 219.637L114.908 207.7L143.838 219.637L146.816 216.851L114.9 148Z" fill="#438BAC"/>
<g opacity="0.1">
<path opacity="0.1" d="M480.597 312.932C480.597 312.932 471.787 312.678 469.128 312.169C469.128 312.65 469.128 312.932 469.128 312.932C468.436 313.667 481.323 314.045 481.323 314.045C481.499 314.062 481.665 314.134 481.802 314.252C481.332 312.932 480.597 312.932 480.597 312.932Z" fill="black"/>
<path opacity="0.1" d="M495.93 297.738C495.576 297.37 495.23 292.186 495.23 292.186C495.049 292.305 494.847 292.382 494.636 292.412C494.76 293.977 494.999 296.38 495.23 296.626C495.46 296.871 497.003 306.259 496.621 310.708C496.24 315.157 496.621 315.147 496.621 315.147C496.621 315.147 485.321 316.91 482.582 315.732C482.582 315.892 482.662 316.071 482.688 316.26C483.034 318.484 497.322 316.26 497.322 316.26C497.322 316.26 496.967 316.26 497.322 311.82C497.676 307.38 496.276 298.115 495.93 297.738Z" fill="black"/>
</g>
<path d="M228.392 254.162C228.404 252.716 228.096 251.287 227.494 249.991C226.892 248.694 226.013 247.566 224.927 246.697C224.913 244.141 224.051 241.672 222.493 239.727C220.934 237.781 218.78 236.484 216.409 236.064C216.043 234.206 215.224 232.484 214.033 231.069C212.843 229.655 211.324 228.598 209.629 228.005C209.217 227.868 208.796 227.764 208.37 227.694H208.246H208.024H207.847H207.652H207.413H206.872C204.517 227.752 202.257 228.694 200.492 230.353C198.727 232.013 197.571 234.283 197.229 236.762C194.118 235.998 191.273 236.988 190.75 239.08C190.619 239.636 190.65 240.221 190.839 240.758C191.37 242.38 193.099 243.935 195.412 244.698L195.713 244.793L196.165 244.915H196.263C195.769 246.032 195.515 247.253 195.518 248.488C195.511 250.003 195.897 251.491 196.633 252.788C197.37 254.085 198.429 255.141 199.693 255.84L199.489 255.972C199.201 256.251 198.971 256.591 198.815 256.971C198.256 258.023 197.818 259.143 197.513 260.308C197.291 261.307 197.256 262.344 196.981 263.333C196.467 265.152 195.155 266.689 195.004 268.583C194.933 269.432 195.066 270.469 194.499 271.015C194.359 271.144 194.208 271.258 194.047 271.355C193.654 271.65 193.32 272.025 193.063 272.458C192.893 272.85 192.659 273.208 192.372 273.513C191.858 273.919 191.016 273.881 190.768 274.512C190.519 275.144 191.166 275.889 191.016 276.577C190.865 277.265 190.316 277.397 189.917 277.783C189.453 278.314 189.126 278.963 188.968 279.668C188.13 279.838 187.266 279.81 186.439 279.585C185.612 279.361 184.841 278.945 184.182 278.368C184.408 278.976 184.574 279.608 184.679 280.253C183.907 279.627 183.032 279.16 182.099 278.877C181.049 278.369 180.113 277.63 179.352 276.709L180.823 276.492L174.326 265.944L172.403 265.52L174.122 269.036C173.979 269.106 173.852 269.209 173.75 269.338C173.649 269.466 173.576 269.618 173.537 269.781C173.446 270.172 173.425 270.578 173.475 270.978C173.564 271.93 173.712 272.874 173.919 273.805L174.415 276.275C174.459 276.501 174.512 276.737 174.574 276.963C173.926 276.929 173.277 277.006 172.651 277.189C171.363 276.68 170.02 276.341 168.654 276.181C168.361 276.117 168.06 276.117 167.767 276.181C167.436 276.348 167.148 276.597 166.925 276.907C165.806 278.287 164.812 279.777 163.956 281.356C160.411 287.822 155.793 293.468 151.424 299.312C148.41 300.613 145.37 301.847 142.33 303.082L135.789 305.74C134.513 306.356 133.13 306.677 131.729 306.683C131.109 306.683 130.338 306.542 129.957 307.107C129.786 307.401 129.652 307.718 129.558 308.05L128.884 308.125C128.574 306.993 128.039 305.945 127.315 305.052C127.156 305.081 127.005 305.152 126.877 305.257C126.749 305.362 126.647 305.499 126.58 305.655C126.42 305.967 126.323 306.306 126.137 306.598C125.791 307.145 125.179 307.409 124.745 307.871C124.311 308.332 124.036 309.049 123.557 309.52C122.905 310.033 122.138 310.358 121.333 310.463C120.118 310.764 118.947 311.237 117.849 311.867C117.448 312.135 117.016 312.347 116.564 312.499C116.065 312.602 115.554 312.621 115.049 312.555L111.592 312.282C111.282 312.241 110.967 312.257 110.661 312.329C110.314 312.479 110.021 312.743 109.824 313.082C109.626 313.42 109.535 313.817 109.562 314.214C109.607 314.614 109.727 314.999 109.916 315.347C110.105 315.696 110.359 316 110.661 316.241C111.259 316.71 111.923 317.076 112.629 317.325C115.62 318.563 118.704 319.534 121.847 320.228V320.973C124.046 322.151 126.475 322.765 128.937 322.763C129.12 322.777 129.303 322.741 129.469 322.66C129.696 322.48 129.853 322.219 129.912 321.925C130.648 319.587 131.112 317.162 131.295 314.704C131.728 314.673 132.151 314.558 132.545 314.365C133.732 314.016 134.92 314.883 136.152 315.025C137.668 315.204 139.068 314.261 140.504 313.686L141.124 313.47C140.716 314.029 140.232 314.521 139.689 314.931C139.095 315.383 138.43 315.722 137.854 316.194C137.366 316.663 136.844 317.092 136.294 317.476C135.906 317.667 135.506 317.83 135.097 317.966C134.493 318.204 133.919 318.521 133.387 318.908C132.915 319.207 132.517 319.621 132.226 320.115C132.08 320.367 131.995 320.654 131.978 320.95C131.961 321.246 132.013 321.542 132.128 321.811C132.251 322.031 132.416 322.221 132.613 322.367C132.811 322.514 133.035 322.613 133.272 322.66C133.739 322.735 134.214 322.735 134.681 322.66C136.56 322.509 138.43 322.33 140.3 322.151C141.091 322.098 141.876 321.978 142.649 321.793C143.057 321.689 143.464 321.548 143.872 321.425C144.572 321.237 145.287 321.123 146.008 321.086C146.217 321.068 146.427 321.091 146.628 321.152C147.063 321.302 147.373 321.774 147.816 321.868C148.117 321.908 148.422 321.866 148.703 321.745C150.069 321.433 151.462 321.275 152.859 321.274C153.471 321.274 154.189 321.114 154.473 320.511C154.756 319.907 154.242 318.937 154.012 318.135C153.893 317.623 153.828 317.098 153.817 316.571C153.71 315.272 153.36 314.01 152.788 312.857C152.48 312.319 152.222 311.751 152.017 311.16C154.698 310.077 157.262 308.693 159.666 307.032C160.983 306.017 162.46 305.261 164.027 304.798C165.878 304.563 167.754 304.796 169.505 305.476C173.766 306.79 177.958 308.344 182.064 310.133C184.023 310.991 185.973 311.895 187.993 312.546C188.583 313.387 189.295 314.122 190.103 314.723C191.499 315.558 193.066 316.015 194.667 316.052C196.804 316.26 198.949 316.345 201.093 316.307C202.735 316.382 204.372 316.06 205.879 315.364C206.239 315.173 206.576 314.936 206.881 314.657C207.46 314.709 208.042 314.626 208.588 314.412C209.133 314.199 209.627 313.861 210.036 313.422C211.198 312.364 212.035 310.958 212.438 309.388C212.961 307.239 212.562 304.675 213.803 302.96C214.131 302.488 214.566 302.111 214.893 301.64C215.291 300.995 215.489 300.233 215.461 299.463C215.475 299.432 215.493 299.404 215.514 299.378C215.786 298.685 215.965 297.956 216.046 297.21C216.198 296.624 216.39 296.05 216.622 295.494C217.252 293.832 217.802 292.136 218.27 290.414C218.59 289.269 218.845 288.104 219.033 286.926C219.166 285.984 219.245 285.041 219.316 284.098C219.41 282.613 219.681 281.147 220.123 279.734C221.232 276.372 221.86 272.851 221.984 269.29V269.083C223.617 268.884 225.121 268.042 226.2 266.723C227.279 265.405 227.856 263.705 227.816 261.957C227.816 260.908 227.608 259.87 227.204 258.913C227.989 257.469 228.398 255.829 228.392 254.162ZM196.679 295.136C196.777 295.504 196.892 295.862 197.007 296.22C196.484 295.683 195.979 295.127 195.456 294.58C195.66 294.655 195.873 294.721 196.068 294.806C196.273 294.895 196.469 295.006 196.653 295.136H196.679ZM194.171 293.326C191.104 290.499 187.559 288.302 184.422 285.559C186.132 286.455 187.798 287.501 189.447 288.5C191.403 289.688 193.385 290.829 195.394 291.922C195.064 292.469 194.64 292.946 194.144 293.326H194.171ZM195.474 286.2L195.625 286.04C195.625 286.446 195.625 286.813 195.625 287.162L194.8 286.86C195.029 286.655 195.245 286.434 195.447 286.2H195.474ZM168.503 293.835C169.761 292.321 170.855 290.661 171.765 288.887C172.979 291.14 174.956 292.77 176.631 294.665C173.927 294.297 171.215 293.986 168.503 293.835Z" fill="url(#paint0_linear)"/>
<path d="M172.864 266.387L174.796 266.802L181.381 277.161L178.483 277.576L172.864 266.387Z" fill="#2F2E41"/>
<path d="M126.013 308.408C126.537 310.236 127.182 312.022 127.945 313.752C130.127 313.262 132.274 312.61 134.371 311.801C133.957 311.147 133.51 310.518 133.032 309.916C132.512 309.314 131.897 308.813 131.215 308.436C130.489 308.261 129.735 308.261 129.008 308.436C128.016 308.408 127.014 308.427 126.013 308.408Z" fill="#FBBEBE"/>
<path d="M131.224 311.17C130.7 310.92 130.232 310.553 129.853 310.095C129.474 309.636 129.192 309.096 129.026 308.512C128.688 307.337 128.117 306.254 127.351 305.335C127.19 305.358 127.036 305.425 126.906 305.529C126.776 305.633 126.673 305.771 126.606 305.929C126.447 306.23 126.349 306.57 126.172 306.871C125.818 307.409 125.197 307.673 124.754 308.125C124.311 308.577 124.045 309.284 123.566 309.746C122.908 310.262 122.136 310.587 121.324 310.689C120.09 310.985 118.899 311.451 117.779 312.075C117.369 312.335 116.931 312.544 116.476 312.697C115.97 312.777 115.457 312.777 114.951 312.697L111.459 312.433C111.166 312.381 110.866 312.381 110.573 312.433C110.216 312.57 109.913 312.83 109.712 313.172C109.512 313.514 109.424 313.917 109.465 314.318C109.506 314.715 109.626 315.099 109.817 315.443C110.008 315.788 110.266 316.085 110.573 316.316C111.179 316.779 111.849 317.142 112.558 317.391C115.599 318.609 118.729 319.554 121.918 320.218V320.954C124.138 322.113 126.579 322.716 129.053 322.716C129.234 322.728 129.416 322.696 129.584 322.622C129.811 322.442 129.968 322.181 130.028 321.887C130.868 319.283 131.36 316.567 131.49 313.818C131.547 313.12 131.496 312.416 131.339 311.735C131.144 311.066 131.8 311.349 131.198 311.085" fill="#2F2E41"/>
<path d="M198.195 297.172C187.843 297.832 177.615 294.608 167.245 294.269C165.957 294.179 164.665 294.264 163.398 294.524C162.079 294.904 160.801 295.432 159.587 296.098C154.029 298.85 148.277 301.131 142.534 303.403L135.931 306.014C134.646 306.631 133.254 306.952 131.845 306.956C131.215 306.956 130.444 306.815 130.072 307.371C128.999 309.068 129.505 311.547 130.214 313.451C130.444 314.063 130.834 314.733 131.455 314.799C131.89 314.767 132.316 314.652 132.713 314.459C133.91 314.12 135.106 314.978 136.347 315.119C137.872 315.289 139.29 314.365 140.734 313.799C143.128 312.857 145.733 312.857 148.25 312.442C152.461 311.698 156.369 309.614 160.021 307.248C161.349 306.242 162.834 305.495 164.408 305.043C166.273 304.809 168.163 305.038 169.93 305.712C174.225 307.001 178.453 308.53 182.596 310.293C184.75 311.29 186.958 312.149 189.208 312.866C194.119 314.233 199.312 313.903 204.036 311.924C205.693 311.226 207.493 310.039 207.581 308.097C207.643 307.013 206.846 306.061 206.323 305.128C205.986 304.534 205.64 303.94 205.277 303.365C203.504 300.632 201.342 296.974 198.195 297.172Z" fill="#2F2E41"/>
<path opacity="0.1" d="M198.195 297.172C187.843 297.832 177.615 294.608 167.245 294.269C165.957 294.179 164.665 294.264 163.398 294.524C162.079 294.904 160.801 295.432 159.587 296.098C154.029 298.85 148.277 301.131 142.534 303.403L135.931 306.014C134.646 306.631 133.254 306.952 131.845 306.956C131.215 306.956 130.444 306.815 130.072 307.371C128.999 309.068 129.505 311.547 130.214 313.451C130.444 314.063 130.834 314.733 131.455 314.799C131.89 314.767 132.316 314.652 132.713 314.459C133.91 314.12 135.106 314.978 136.347 315.119C137.872 315.289 139.29 314.365 140.734 313.799C143.128 312.857 145.733 312.857 148.25 312.442C152.461 311.698 156.369 309.614 160.021 307.248C161.349 306.242 162.834 305.495 164.408 305.043C166.273 304.809 168.163 305.038 169.93 305.712C174.225 307.001 178.453 308.53 182.596 310.293C184.75 311.29 186.958 312.149 189.208 312.866C194.119 314.233 199.312 313.903 204.036 311.924C205.693 311.226 207.493 310.039 207.581 308.097C207.643 307.013 206.846 306.061 206.323 305.128C205.986 304.534 205.64 303.94 205.277 303.365C203.504 300.632 201.342 296.974 198.195 297.172Z" fill="black"/>
<path d="M145.893 308.917C147.512 309.501 149.146 310.042 150.794 310.538C151.681 308.926 153.453 307.805 153.834 305.957C153.857 305.877 153.857 305.792 153.834 305.712C153.791 305.634 153.726 305.571 153.648 305.533C152.463 304.841 151.15 304.432 149.802 304.336C148.738 304.27 148.251 305.448 147.772 306.278C147.586 306.645 146.327 309.096 145.893 308.917Z" fill="#FBBEBE"/>
<path d="M148.162 307.767C147.677 307.68 147.215 307.486 146.805 307.199C146.394 306.912 146.045 306.537 145.778 306.099C145.556 305.674 145.308 305.099 144.847 305.156C144.386 305.213 144.235 305.722 144.138 306.165C143.831 307.835 143.383 309.472 142.8 311.057C142.215 312.649 141.223 314.037 139.937 315.063C139.334 315.506 138.669 315.835 138.075 316.307C137.584 316.77 137.059 317.192 136.507 317.57C136.116 317.756 135.713 317.914 135.301 318.041C134.696 318.283 134.119 318.6 133.582 318.984C133.104 319.276 132.699 319.686 132.403 320.181C132.256 320.428 132.171 320.711 132.156 321.003C132.14 321.295 132.195 321.586 132.314 321.849C132.438 322.066 132.605 322.252 132.802 322.395C132.999 322.538 133.223 322.635 133.458 322.679C133.931 322.754 134.412 322.754 134.885 322.679C136.773 322.537 138.66 322.358 140.548 322.179C141.344 322.124 142.135 322.008 142.915 321.83L144.147 321.472C144.851 321.274 145.573 321.161 146.301 321.133C146.512 321.112 146.726 321.135 146.93 321.199C147.364 321.35 147.674 321.811 148.126 321.906C148.427 321.936 148.73 321.895 149.013 321.783C150.39 321.469 151.796 321.314 153.205 321.321C153.825 321.321 154.552 321.152 154.836 320.567C155.19 319.832 154.605 319.012 154.366 318.22C154.252 317.717 154.186 317.202 154.171 316.684C154.065 315.402 153.712 314.157 153.134 313.027C152.656 312.084 152 311.047 152.336 310.048C152.504 309.731 152.612 309.382 152.656 309.021C152.523 307.399 149.03 307.974 148.162 307.767Z" fill="#2F2E41"/>
<path d="M182.675 279.508C180.838 278.652 179.366 277.1 178.545 275.153C178.377 274.739 178.235 274.296 178.067 273.881C177.526 272.476 176.682 271.227 175.603 270.233C175.489 270.105 175.351 270.002 175.199 269.933C175.046 269.863 174.882 269.827 174.716 269.828C174.552 269.881 174.403 269.979 174.286 270.113C174.169 270.248 174.088 270.413 174.051 270.591C173.952 270.975 173.928 271.376 173.981 271.769C174.071 272.696 174.219 273.616 174.424 274.522L174.929 276.954C174.996 277.326 175.1 277.689 175.239 278.038C175.455 278.445 175.741 278.806 176.081 279.103C176.542 279.555 177.012 279.989 177.482 280.422C177.753 280.674 178.05 280.892 178.368 281.073C178.863 281.324 179.393 281.489 179.937 281.563C182.052 281.856 184.07 282.683 185.822 283.976C185.822 283.976 185.822 282.345 185.822 282.166C185.8 281.692 185.645 281.236 185.379 280.856C184.567 280.227 183.649 279.77 182.675 279.508Z" fill="#FBBEBE"/>
<path opacity="0.1" d="M182.675 279.508C180.838 278.652 179.366 277.1 178.545 275.153C178.377 274.739 178.235 274.296 178.067 273.881C177.526 272.476 176.682 271.227 175.603 270.233C175.489 270.105 175.351 270.002 175.199 269.933C175.046 269.863 174.882 269.827 174.716 269.828C174.552 269.881 174.403 269.979 174.286 270.113C174.169 270.248 174.088 270.413 174.051 270.591C173.952 270.975 173.928 271.376 173.981 271.769C174.071 272.696 174.219 273.616 174.424 274.522L174.929 276.954C174.996 277.326 175.1 277.689 175.239 278.038C175.455 278.445 175.741 278.806 176.081 279.103C176.542 279.555 177.012 279.989 177.482 280.422C177.753 280.674 178.05 280.892 178.368 281.073C178.863 281.324 179.393 281.489 179.937 281.563C182.052 281.856 184.07 282.683 185.822 283.976C185.822 283.976 185.822 282.345 185.822 282.166C185.8 281.692 185.645 281.236 185.379 280.856C184.567 280.227 183.649 279.77 182.675 279.508Z" fill="black"/>
<path d="M203.752 260.901C205.142 260.901 206.269 259.694 206.269 258.206C206.269 256.717 205.142 255.51 203.752 255.51C202.362 255.51 201.235 256.717 201.235 258.206C201.235 259.694 202.362 260.901 203.752 260.901Z" fill="#2F2E41"/>
<path d="M202.192 256.584C201.519 256.412 200.809 256.52 200.207 256.886C199.916 257.161 199.684 257.498 199.524 257.876C198.961 258.907 198.52 260.009 198.213 261.156C197.991 262.098 197.956 263.164 197.672 264.134C197.158 265.925 195.837 267.443 195.687 269.309C195.616 270.148 195.749 271.128 195.173 271.694C195.032 271.824 194.88 271.94 194.721 272.043C194.322 272.326 193.983 272.695 193.728 273.127C193.554 273.511 193.317 273.859 193.028 274.154C192.514 274.559 191.663 274.522 191.415 275.097C191.166 275.672 191.813 276.454 191.663 277.133C191.512 277.811 190.954 277.943 190.555 278.32C190.085 278.848 189.755 279.498 189.598 280.206C188.755 280.378 187.888 280.354 187.055 280.134C186.222 279.914 185.445 279.505 184.776 278.933C185.361 280.822 185.616 282.809 185.529 284.796C185.574 285.114 185.557 285.438 185.481 285.749C185.405 286.06 185.271 286.351 185.086 286.606C187.086 286.764 189.066 287.13 190.998 287.699C191.835 287.996 192.74 287.996 193.577 287.699C194.026 287.443 194.428 287.105 194.765 286.7C195.829 285.55 196.945 284.296 197.202 282.703C197.266 281.803 197.281 280.9 197.247 279.998C197.348 278.88 197.565 277.776 197.894 276.709C198.455 274.492 198.831 272.227 199.019 269.941C199.134 268.527 200.287 267.396 200.889 266.17C202.024 263.786 203.194 261.307 203.274 258.63C203.309 257.763 203.025 256.679 202.192 256.584Z" fill="#2F2E41"/>
<path opacity="0.1" d="M202.192 256.584C201.519 256.412 200.809 256.52 200.207 256.886C199.916 257.161 199.684 257.498 199.524 257.876C198.961 258.907 198.52 260.009 198.213 261.156C197.991 262.098 197.956 263.164 197.672 264.134C197.158 265.925 195.837 267.443 195.687 269.309C195.616 270.148 195.749 271.128 195.173 271.694C195.032 271.824 194.88 271.94 194.721 272.043C194.322 272.326 193.983 272.695 193.728 273.127C193.554 273.511 193.317 273.859 193.028 274.154C192.514 274.559 191.663 274.522 191.415 275.097C191.166 275.672 191.813 276.454 191.663 277.133C191.512 277.811 190.954 277.943 190.555 278.32C190.085 278.848 189.755 279.498 189.598 280.206C188.755 280.378 187.888 280.354 187.055 280.134C186.222 279.914 185.445 279.505 184.776 278.933C185.361 280.822 185.616 282.809 185.529 284.796C185.574 285.114 185.557 285.438 185.481 285.749C185.405 286.06 185.271 286.351 185.086 286.606C187.086 286.764 189.066 287.13 190.998 287.699C191.835 287.996 192.74 287.996 193.577 287.699C194.026 287.443 194.428 287.105 194.765 286.7C195.829 285.55 196.945 284.296 197.202 282.703C197.266 281.803 197.281 280.9 197.247 279.998C197.348 278.88 197.565 277.776 197.894 276.709C198.455 274.492 198.831 272.227 199.019 269.941C199.134 268.527 200.287 267.396 200.889 266.17C202.024 263.786 203.194 261.307 203.274 258.63C203.309 257.763 203.025 256.679 202.192 256.584Z" fill="black"/>
<path d="M199.835 299.491C197.681 298.398 196.103 296.371 194.357 294.627C191.034 291.3 186.965 288.972 183.464 285.833C181.142 283.769 179.033 281.365 176.524 279.631C174.278 278.116 171.733 277.171 169.088 276.869C168.796 276.797 168.493 276.797 168.202 276.869C167.867 277.02 167.576 277.264 167.36 277.576C166.229 278.932 165.223 280.4 164.355 281.959C159.923 289.971 153.622 296.701 148.401 304.147C148.281 304.302 148.194 304.482 148.144 304.675C148.122 304.964 148.191 305.252 148.339 305.495L149.403 307.701C149.997 308.945 150.954 310.387 152.23 310.142C152.805 309.965 153.319 309.615 153.71 309.134L158.479 304.279L163.478 299.199C166.402 296.23 169.381 293.185 171.295 289.377C172.784 292.129 175.434 293.93 177.242 296.446C177.934 297.389 178.501 298.454 179.121 299.472C180.105 301.093 181.231 302.62 182.348 304.185L188.082 311.961C188.809 313.06 189.708 314.016 190.741 314.789C192.155 315.608 193.732 316.057 195.341 316.099C197.495 316.304 199.658 316.385 201.82 316.344C203.476 316.415 205.126 316.093 206.651 315.402C207.41 315.047 208.06 314.469 208.523 313.736C208.985 313.004 209.243 312.146 209.265 311.264C209.177 310.351 208.895 309.471 208.441 308.691C206.367 304.76 203.69 301.442 199.835 299.491Z" fill="#2F2E41"/>
<path d="M205.303 262.146C206.375 262.146 207.244 261.217 207.244 260.072C207.244 258.927 206.375 257.998 205.303 257.998C204.231 257.998 203.362 258.927 203.362 260.072C203.362 261.217 204.231 262.146 205.303 262.146Z" fill="#E8E8F0"/>
<path d="M204.878 258.517C205.311 259.442 205.387 260.511 205.091 261.495C204.785 262.462 204.365 263.384 203.841 264.238C203.391 265.119 202.846 265.941 202.219 266.689C205.215 266.84 208.113 265.595 210.745 264.087C212.873 262.871 214.991 261.373 216.125 259.101C215.787 259.187 215.435 259.196 215.093 259.128C214.751 259.059 214.426 258.915 214.14 258.705C213.569 258.287 213.058 257.782 212.624 257.206L211.127 255.416C210.787 255.022 210.49 254.588 210.24 254.124C209.911 253.489 209.772 252.762 209.841 252.041C209.244 252.703 208.578 253.292 207.856 253.794C206.784 254.539 205.605 255.076 204.523 255.811C204.151 256.075 203.3 256.49 203.522 257.018C203.743 257.546 204.577 257.951 204.878 258.517Z" fill="#FBBEBE"/>
<path opacity="0.1" d="M204.878 258.517C205.311 259.442 205.387 260.511 205.091 261.495C204.785 262.462 204.365 263.384 203.841 264.238C203.391 265.119 202.846 265.941 202.219 266.689C205.215 266.84 208.113 265.595 210.745 264.087C212.873 262.871 214.991 261.373 216.125 259.101C215.787 259.187 215.435 259.196 215.093 259.128C214.751 259.059 214.426 258.915 214.14 258.705C213.569 258.287 213.058 257.782 212.624 257.206L211.127 255.416C210.787 255.022 210.49 254.588 210.24 254.124C209.911 253.489 209.772 252.762 209.841 252.041C209.244 252.703 208.578 253.292 207.856 253.794C206.784 254.539 205.605 255.076 204.523 255.811C204.151 256.075 203.3 256.49 203.522 257.018C203.743 257.546 204.577 257.951 204.878 258.517Z" fill="black"/>
<path d="M204.913 258.828C204.61 259.282 204.447 259.826 204.447 260.383C204.447 260.94 204.61 261.484 204.913 261.938C205.002 262.051 205.321 262.758 205.454 262.768C205.519 262.762 205.583 262.742 205.64 262.71C205.698 262.678 205.749 262.633 205.791 262.579C206.472 261.824 207.106 261.021 207.688 260.176C208.281 259.333 209.135 258.739 210.098 258.498C211.292 258.449 212.466 258.839 213.422 259.601C213.867 259.816 214.258 260.139 214.566 260.543C214.779 260.959 214.906 261.419 214.938 261.891C215.227 264.736 215.34 267.598 215.275 270.459C215.325 272.525 215.198 274.592 214.893 276.633C214.698 277.679 214.415 278.707 214.282 279.772C214.178 280.71 214.136 281.655 214.158 282.6V286.54C214.134 287.263 214.182 287.986 214.3 288.698C214.477 289.556 214.858 290.357 215.115 291.196C215.38 292.16 215.561 293.148 215.656 294.147L216.161 298.219C216.32 299.5 216.445 300.905 215.709 301.989C215.381 302.451 214.947 302.828 214.61 303.29C213.36 305.024 213.724 307.503 213.236 309.624C212.825 311.176 211.978 312.558 210.807 313.583C210.39 314.022 209.887 314.358 209.335 314.568C208.782 314.778 208.192 314.857 207.608 314.799C206.048 314.488 205.117 312.763 204.692 311.132C204.266 309.501 204.116 307.729 203.194 306.353C202.348 305.311 201.348 304.423 200.234 303.723C199.106 303.013 198.278 301.869 197.92 300.528C197.823 299.934 197.92 299.321 197.823 298.718C197.74 297.959 197.466 297.237 197.031 296.629C196.596 296.02 196.016 295.547 195.35 295.259C194.552 294.929 193.577 294.806 193.116 294.033C194.258 293.274 195.089 292.086 195.447 290.706C195.8 289.335 195.991 287.923 196.015 286.502L196.281 281.789C196.405 279.668 196.458 277.576 197.335 275.672C197.725 274.823 198.222 274.022 198.62 273.183C199.161 272.005 199.62 270.785 199.994 269.535C200.632 267.594 201.271 265.652 201.838 263.691C202.059 262.74 202.399 261.824 202.848 260.967C203.327 260.081 204.018 259.016 204.913 258.828Z" fill="#E8E8F0"/>
<path d="M195.031 289.594H196.21L196.458 287.709C196.49 287.33 196.574 286.959 196.706 286.606C196.901 286.231 197.129 285.878 197.388 285.55C198.541 283.806 198.461 281.497 198.745 279.376C199.258 276.574 200.129 273.86 201.333 271.308L203.619 265.888C203.828 265.444 203.994 264.98 204.116 264.502C204.212 263.974 204.259 263.437 204.257 262.9C204.257 262.061 204.506 259.007 204.532 258.187C204.532 257.876 203.885 258.045 203.752 257.772C203.469 257.169 203.079 258.799 202.538 259.158C202.03 259.57 201.66 260.145 201.483 260.798C200.987 262.155 200.686 263.626 200.225 264.973C199.824 266.38 199.088 267.653 198.089 268.668C197.619 269.102 197.078 269.451 196.635 269.922C195.217 271.411 195.075 273.777 195.031 275.907C194.995 277.208 194.765 289.594 195.031 289.594Z" fill="#2F2E41"/>
<path d="M211.995 256.575C211.447 256.88 210.973 257.314 210.608 257.846C210.244 258.377 210 258.99 209.895 259.638C209.692 260.938 209.335 262.205 208.831 263.409C207.395 266.067 203.735 266.84 202.715 269.715C202.459 270.681 202.322 271.679 202.308 272.684C202.13 274.748 201.492 276.737 201.297 278.792C201.2 280.391 201.235 281.997 201.403 283.589L202.689 299.821C202.935 302.208 202.806 304.623 202.308 306.966C203.625 307.166 204.968 306.929 206.154 306.287C207.351 305.703 208.45 304.901 209.611 304.223C211.596 303.054 213.794 302.234 215.54 300.679C215.853 300.413 216.123 300.095 216.338 299.736C216.605 299.055 216.784 298.338 216.87 297.606C217.021 297.031 217.213 296.47 217.446 295.928C218.086 294.289 218.642 292.616 219.112 290.913C219.432 289.787 219.687 288.642 219.875 287.482C220.016 286.54 220.096 285.597 220.167 284.655C220.26 283.193 220.534 281.751 220.982 280.366C222.095 277.056 222.725 273.585 222.853 270.073C222.887 269.568 222.854 269.06 222.755 268.565C222.56 267.959 222.299 267.38 221.975 266.84C221.443 265.775 221.089 264.606 220.628 263.522C219.371 261.134 217.57 259.122 215.39 257.668C214.362 256.924 213.156 256.132 211.995 256.575Z" fill="#2F2E41"/>
<path d="M185.219 283.062C184.309 282.554 183.486 281.888 182.782 281.092C182.463 280.696 182.197 280.253 181.895 279.857C181.074 278.916 180.005 278.26 178.829 277.972C177.665 277.7 176.475 277.576 175.283 277.604C174.484 277.547 173.681 277.649 172.917 277.906C172.536 278.041 172.193 278.276 171.919 278.589C171.645 278.902 171.449 279.283 171.348 279.697C171.316 280.209 171.409 280.722 171.619 281.184C171.829 281.647 172.148 282.044 172.545 282.336C173.237 282.94 174.054 283.36 174.929 283.561C175.641 283.696 176.36 283.787 177.083 283.835C181.319 284.306 185.104 286.757 188.818 288.991C192.079 290.964 195.406 292.799 198.798 294.495C198.929 293.417 198.985 292.33 198.966 291.243C198.966 290.433 198.904 289.188 198.186 288.708C197.165 288.253 196.101 287.915 195.013 287.699C192.826 286.939 190.691 286.02 188.623 284.947C187.453 284.41 186.327 283.75 185.219 283.062Z" fill="#FBBEBE"/>
<path d="M203.752 257.593C207.923 257.593 211.304 253.976 211.304 249.515C211.304 245.054 207.923 241.437 203.752 241.437C199.582 241.437 196.201 245.054 196.201 249.515C196.201 253.976 199.582 257.593 203.752 257.593Z" fill="#FBBEBE"/>
<path d="M214.149 265.727C213.546 266.628 213.054 267.606 212.687 268.64C211.8 270.676 210.293 272.41 209.558 274.569C208.822 276.727 208.813 279.499 207.298 281.261C206.994 281.531 206.765 281.883 206.633 282.279C206.627 282.526 206.603 282.772 206.562 283.015C206.34 283.656 205.357 283.684 205.17 284.344C205.117 284.532 205.17 284.739 205.082 284.928C204.931 285.352 204.399 285.418 204.054 285.673C203.318 286.2 203.469 287.426 202.946 288.189C202.718 288.474 202.423 288.689 202.091 288.813C201.76 288.937 201.403 288.966 201.058 288.896C200.37 288.747 199.709 288.483 199.099 288.114C198.88 287.986 198.639 287.906 198.39 287.878C198.096 287.889 197.812 287.994 197.575 288.18C196.906 288.704 196.37 289.395 196.014 290.193C195.659 290.991 195.494 291.87 195.536 292.751C195.638 294.518 196.034 296.251 196.706 297.87C196.781 298.15 196.911 298.41 197.087 298.633C197.351 298.854 197.671 298.986 198.005 299.012C198.34 299.039 198.674 298.96 198.966 298.784C199.544 298.419 200.16 298.125 200.801 297.907C201.971 297.681 203.114 298.539 204.302 298.464C205.167 298.328 205.981 297.947 206.659 297.361C207.852 296.604 208.923 295.649 209.833 294.533C210.347 293.807 210.719 292.987 211.18 292.214C211.766 291.275 212.402 290.372 213.085 289.509L217.446 283.853C217.879 283.316 218.27 282.743 218.616 282.138C219.003 281.313 219.301 280.443 219.502 279.546C219.968 278.052 220.266 276.505 220.389 274.937C220.416 273.64 220.309 272.344 220.07 271.072C219.937 269.805 219.639 268.565 219.183 267.386C218.235 265.256 215.93 263.522 214.149 265.727Z" fill="#2F2E41"/>
<path d="M229.323 255.189C229.329 253.757 229.016 252.344 228.409 251.066C227.802 249.788 226.918 248.681 225.831 247.837C225.795 245.293 224.913 242.845 223.34 240.928C221.768 239.011 219.607 237.748 217.242 237.365C216.788 234.953 215.546 232.789 213.738 231.256C211.929 229.723 209.669 228.918 207.357 228.985C205.044 229.051 202.829 229.985 201.1 231.62C199.372 233.255 198.243 235.487 197.911 237.921C194.774 237.167 191.902 238.147 191.379 240.202C190.856 242.257 193.072 244.915 196.378 245.858C197.421 246.168 198.507 246.283 199.587 246.197C200.356 247.403 201.355 248.425 202.518 249.196C203.681 249.967 204.983 250.471 206.34 250.674C206.743 252.618 207.645 254.403 208.948 255.832C210.25 257.26 211.901 258.275 213.715 258.762C214.22 260.05 215 261.195 215.992 262.108C215.992 262.362 215.992 262.626 215.992 262.89C215.992 263.783 216.158 264.666 216.479 265.491C216.8 266.316 217.271 267.065 217.864 267.696C218.458 268.327 219.162 268.828 219.937 269.169C220.713 269.511 221.544 269.686 222.383 269.686C223.222 269.686 224.053 269.511 224.828 269.169C225.604 268.828 226.308 268.327 226.902 267.696C227.495 267.065 227.966 266.316 228.287 265.491C228.608 264.666 228.773 263.783 228.773 262.89C228.774 261.853 228.565 260.828 228.162 259.883C228.942 258.46 229.343 256.837 229.323 255.189Z" fill="#F86D70"/>
<path opacity="0.1" d="M193.506 240.636C194.029 238.581 196.901 237.601 200.039 238.355C200.411 235.881 201.594 233.627 203.378 231.992C205.162 230.357 207.433 229.445 209.788 229.419H210.435C209.533 229.127 208.595 228.978 207.652 228.976C205.297 229.002 203.026 229.914 201.242 231.549C199.458 233.184 198.275 235.438 197.903 237.912C194.765 237.158 191.893 238.138 191.37 240.193C190.847 242.248 193.063 244.906 196.369 245.848C196.989 246.031 197.624 246.148 198.266 246.197C195.102 245.188 192.983 242.738 193.506 240.636Z" fill="black"/>
<path opacity="0.1" d="M218.084 263.286C218.071 263.029 218.071 262.771 218.084 262.513C217.086 261.606 216.305 260.459 215.806 259.167C213.99 258.682 212.337 257.667 211.034 256.236C209.731 254.806 208.83 253.016 208.432 251.07C207.074 250.871 205.77 250.37 204.605 249.6C203.44 248.83 202.44 247.809 201.669 246.602C201.04 246.658 200.407 246.639 199.782 246.546C200.558 247.656 201.533 248.592 202.651 249.299C203.769 250.006 205.008 250.47 206.296 250.665C206.698 252.608 207.601 254.394 208.903 255.822C210.206 257.25 211.856 258.265 213.67 258.752C214.175 260.04 214.955 261.186 215.948 262.098C215.948 262.353 215.948 262.617 215.948 262.881C215.92 264.708 216.572 266.473 217.762 267.79C218.953 269.107 220.585 269.87 222.303 269.913C221.05 269.395 219.975 268.484 219.221 267.3C218.467 266.116 218.071 264.716 218.084 263.286Z" fill="black"/>
<path d="M207.215 252.48C207.726 252.068 207.72 251.145 207.202 250.42C206.684 249.694 205.85 249.441 205.339 249.853C204.828 250.266 204.834 251.188 205.353 251.914C205.871 252.639 206.705 252.893 207.215 252.48Z" fill="#FBBEBE"/>
<path d="M510.968 278.856C511.411 278.23 511.723 277.506 511.881 276.736C512.039 275.965 512.04 275.166 511.883 274.395C511.727 273.624 511.417 272.9 510.975 272.273C510.533 271.646 509.97 271.133 509.326 270.768L510.308 258.471L503.583 256L502.421 273.386C501.93 274.604 501.866 275.975 502.242 277.24C502.618 278.505 503.408 279.576 504.461 280.25C505.515 280.924 506.759 281.155 507.958 280.898C509.157 280.641 510.228 279.914 510.968 278.856V278.856Z" fill="#FFB8B8"/>
<path d="M546.998 374L540.222 373.999L537 349L547 349.001L546.998 374Z" fill="#FFB8B8"/>
<path d="M535.341 372H547V380H528C528 378.949 528.19 377.909 528.559 376.939C528.928 375.968 529.468 375.086 530.15 374.343C530.832 373.6 531.641 373.011 532.532 372.609C533.422 372.207 534.377 372 535.341 372V372Z" fill="#2F2E41"/>
<path d="M532 357.443L526.224 359L518 335.299L526.525 333L532 357.443Z" fill="#FFB8B8"/>
<path d="M521.101 358.017L532.889 355.002L534.713 362.726L515.502 367.638C515.263 366.624 515.217 365.571 515.369 364.538C515.521 363.506 515.866 362.514 516.386 361.621C516.906 360.727 517.59 359.949 518.399 359.331C519.208 358.712 520.126 358.266 521.101 358.017Z" fill="#2F2E41"/>
<path d="M539.17 366C538.592 366.001 538.035 365.78 537.606 365.38C537.176 364.98 536.906 364.429 536.847 363.835L529.564 293.619L523.227 315.09L532.203 348.626C532.357 349.201 532.301 349.815 532.045 350.349C531.789 350.884 531.351 351.302 530.816 351.523L523.68 354.477C523.387 354.599 523.072 354.658 522.756 354.65C522.439 354.642 522.128 354.568 521.84 354.433C521.552 354.297 521.294 354.102 521.08 353.86C520.867 353.618 520.704 353.334 520.599 353.025L509.6 320.362C508.395 316.795 507.863 313.023 508.03 309.249L509.565 274L550 275.772L549.369 362.982C549.361 363.589 549.135 364.172 548.734 364.615C548.334 365.059 547.788 365.332 547.203 365.381L539.351 365.993C539.29 365.998 539.23 366 539.17 366Z" fill="#2F2E41"/>
<path d="M532 196C539.732 196 546 189.732 546 182C546 174.268 539.732 168 532 168C524.268 168 518 174.268 518 182C518 189.732 524.268 196 532 196Z" fill="#FFB8B8"/>
<path d="M542.266 277.988C538.7 277.988 534.269 277.684 529.686 277.37C523.423 276.94 516.947 276.496 512.112 276.788C511.459 276.855 510.801 276.748 510.199 276.475C509.598 276.202 509.073 275.773 508.676 275.229C503.692 268.58 511.379 242.652 511.709 241.552L517.965 212.559L518.234 212.622L517.965 212.559C519.341 206.182 523.738 201.479 529.44 200.283C534.777 199.166 539.94 201.393 543.251 206.243C543.426 206.501 543.602 206.765 543.777 207.036C554.557 223.67 548.46 264.998 548.051 267.665C548.621 268.376 551.7 272.394 550.854 275.186C550.509 276.321 549.574 277.095 548.074 277.486C546.162 277.88 544.214 278.049 542.266 277.988V277.988Z" fill="#438BAC"/>
<path d="M512.208 277.998C510.972 277.998 509.305 277.527 507.057 276.56C506.091 276.145 503.151 274.881 506.72 242.648C508.473 226.815 510.985 211.092 511.01 210.935L511.034 210.783L511.17 210.72C511.234 210.69 517.649 207.651 518.764 203.747C518.803 203.612 518.846 203.481 518.894 203.354C519.201 202.486 519.82 201.774 520.623 201.367C521.426 200.96 522.35 200.888 523.202 201.168C524.102 201.39 524.887 201.958 525.397 202.757C525.907 203.555 526.104 204.524 525.948 205.467C525.559 208.013 524.812 210.487 523.731 212.81C520.712 219.246 518.667 236.306 518.647 236.478C518.532 237.935 515.792 272.457 515.264 275.077C515.08 275.992 514.741 277.111 513.746 277.654C513.268 277.898 512.74 278.016 512.208 277.998V277.998Z" fill="#2F2E41"/>
<path d="M526.927 277C526.681 277 526.441 276.914 526.247 276.756C522.284 273.599 528.698 235.335 532.502 222.133C533.264 219.489 533.942 217.225 534.519 215.403C535.569 212.134 536.302 208.762 536.707 205.339C536.916 203.485 537.371 202.426 538.098 202.101C538.603 201.875 539.198 202.028 539.864 202.557C543.378 202.375 546.792 203.88 549.957 205.536L552.804 207.025L556 266.323C555.91 270.108 548.792 272.779 545.686 272.95C540.701 273.224 531.75 274.075 527.806 276.692C527.547 276.881 527.242 276.988 526.927 277V277Z" fill="#2F2E41"/>
<path d="M508.733 266C508.686 266 508.639 265.999 508.591 265.996L502.167 265.58C501.847 265.559 501.535 265.468 501.25 265.314C500.966 265.159 500.715 264.944 500.513 264.682C500.312 264.42 500.164 264.116 500.081 263.791C499.997 263.465 499.978 263.125 500.026 262.792L502.933 242.524L508.405 214.089C508.54 213.388 508.813 212.725 509.207 212.143C509.601 211.561 510.107 211.072 510.691 210.709C511.276 210.345 511.927 210.115 512.602 210.033C513.276 209.952 513.96 210.02 514.608 210.234V210.234C515.715 210.606 516.66 211.383 517.272 212.423C517.883 213.464 518.121 214.701 517.942 215.91L513.594 244.402L511.02 263.905C510.941 264.485 510.667 265.015 510.247 265.4C509.827 265.785 509.29 265.998 508.733 266V266Z" fill="#2F2E41"/>
<path d="M531.755 243.186C532.135 242.553 532.646 242.013 533.251 241.604C533.857 241.195 534.542 240.927 535.26 240.819C535.978 240.711 536.71 240.765 537.404 240.978C538.099 241.191 538.74 241.558 539.282 242.052L549.49 237L554 242.607L539.486 249.533C538.615 250.411 537.46 250.93 536.241 250.993C535.021 251.057 533.821 250.66 532.869 249.877C531.916 249.095 531.276 247.982 531.071 246.749C530.866 245.515 531.109 244.248 531.755 243.186V243.186Z" fill="#FFB8B8"/>
<path d="M545.915 249C545.387 249 544.873 248.816 544.458 248.478C544.043 248.141 543.75 247.668 543.626 247.138L542.067 240.445C541.948 239.942 541.988 239.412 542.183 238.934C542.377 238.457 542.715 238.056 543.146 237.791L552.55 231.98L547.743 213.806C547.404 212.514 547.478 211.144 547.954 209.899C548.408 208.718 549.203 207.711 550.23 207.014C551.258 206.317 552.469 205.964 553.698 206.003C554.927 206.042 556.115 206.471 557.099 207.232C558.084 207.993 558.817 209.048 559.2 210.255L564.507 226.988C565.159 229.027 565.164 231.229 564.522 233.272C563.88 235.314 562.623 237.093 560.935 238.348L547.294 248.539C546.893 248.838 546.41 249 545.915 249V249Z" fill="#2F2E41"/>
<path d="M534.264 195.996C536.299 196.043 538.32 195.635 540.194 194.798C542.069 193.962 543.754 192.717 545.14 191.145C546.526 189.573 547.58 187.71 548.234 185.677C548.889 183.645 549.128 181.489 548.936 179.352C548.744 177.215 548.125 175.145 547.121 173.278C546.116 171.412 544.748 169.79 543.107 168.52C541.466 167.251 539.589 166.362 537.599 165.912C535.609 165.462 533.552 165.461 531.561 165.91C528.588 164.006 525.132 162.725 521.667 163.051C518.203 163.376 514.777 165.546 513.481 168.95C512.186 172.355 513.577 176.842 516.799 178.226C518.864 179.113 521.196 178.682 523.4 178.325C525.604 177.967 528.008 177.734 529.926 178.933C531.844 180.132 532.706 183.348 530.989 184.848C530.078 185.674 529.428 186.773 529.124 187.999C528.821 189.225 528.879 190.52 529.291 191.71C530.154 194.065 532.511 195.956 534.264 195.996Z" fill="#2F2E41"/>
<defs>
<linearGradient id="paint0_linear" x1="55119.5" y1="63039.9" x2="55119.5" y2="53438.6" gradientUnits="userSpaceOnUse">
<stop stop-color="#808080" stop-opacity="0.25"/>
<stop offset="0.54" stop-color="#808080" stop-opacity="0.12"/>
<stop offset="1" stop-color="#808080" stop-opacity="0.1"/>
</linearGradient>
</defs>
</svg>
