<svg width="1815" height="1391" viewBox="0 0 1815 1391" fill="none" xmlns="http://www.w3.org/2000/svg">
<g clip-path="url(#clip0)">
<path d="M553.612 47.7263C567.74 47.7263 579.193 37.0424 579.193 23.8632C579.193 10.6839 567.74 0 553.612 0C539.483 0 528.03 10.6839 528.03 23.8632C528.03 37.0424 539.483 47.7263 553.612 47.7263Z" fill="#F1F1F1"/>
<path d="M488.598 108.373C502.726 108.373 514.179 97.6894 514.179 84.5101C514.179 71.3309 502.726 60.647 488.598 60.647C474.469 60.647 463.016 71.3309 463.016 84.5101C463.016 97.6894 474.469 108.373 488.598 108.373Z" fill="#F1F1F1"/>
<path d="M472.344 1184.85C486.472 1184.85 497.926 1174.17 497.926 1160.99C497.926 1147.81 486.472 1137.13 472.344 1137.13C458.216 1137.13 446.762 1147.81 446.762 1160.99C446.762 1174.17 458.216 1184.85 472.344 1184.85Z" fill="#F1F1F1"/>
<path d="M1346.89 1362.71H1319.06L1317.47 1264.15L1346.89 1262.6V1362.71Z" fill="#9F616A"/>
<path d="M1354.01 1387.89L1264.24 1387.89V1386.81C1264.25 1378.17 1267.94 1369.88 1274.49 1363.77C1281.04 1357.66 1289.92 1354.22 1299.19 1354.21H1354.01V1387.89Z" fill="#2F2E41"/>
<path d="M1506.16 1332.81L1480.66 1343.18L1436.97 1253.42L1463.28 1241.04L1506.16 1332.81Z" fill="#9F616A"/>
<path d="M1441.19 1386.7L1440.73 1385.71C1438.89 1381.78 1437.91 1377.56 1437.82 1373.28C1437.74 1369 1438.56 1364.74 1440.24 1360.76C1441.91 1356.77 1444.42 1353.14 1447.6 1350.06C1450.79 1346.97 1454.59 1344.51 1458.8 1342.8L1509.05 1322.36L1523.48 1353.24L1441.19 1386.7Z" fill="#2F2E41"/>
<path d="M1396.33 584.726C1429.62 584.726 1456.62 559.546 1456.62 528.486C1456.62 497.426 1429.62 472.247 1396.33 472.247C1363.03 472.247 1336.04 497.426 1336.04 528.486C1336.04 559.546 1363.03 584.726 1396.33 584.726Z" fill="#9F616A"/>
<path d="M1504.24 1285.76L1426.32 1108.18L1464.17 942.034L1392.37 938.4L1352.85 1124.28L1452.48 1308.6L1504.24 1285.76Z" fill="#2F2E41"/>
<path d="M1419.08 908.804L1382.35 1121.16L1371.3 1324.7L1307.89 1324.18L1305.54 934.765L1419.08 908.804Z" fill="#2F2E41"/>
<path d="M1469.48 920.914L1465.87 951.673L1286.1 959.176L1298.27 912.926L1469.48 920.914Z" fill="#CBCBCB"/>
<path d="M1298.55 978.979C1296.83 976.959 1295.55 974.642 1294.8 972.16C1294.05 969.679 1293.84 967.083 1294.17 964.523C1294.5 961.963 1295.37 959.49 1296.73 957.247C1298.1 955.003 1299.92 953.035 1302.11 951.455C1303.02 950.794 1304 950.202 1305.01 949.687L1375.52 702.531L1417.31 719.664L1334.49 958.504C1336.46 962.505 1336.92 967.012 1335.81 971.291C1334.69 975.571 1332.05 979.372 1328.32 982.077C1323.92 985.321 1318.33 986.814 1312.75 986.234C1307.18 985.654 1302.07 983.047 1298.55 978.979V978.979Z" fill="#9F616A"/>
<path d="M1343.11 638.858L1351.42 622.835C1351.42 622.835 1392.37 589.816 1435.56 609.609L1442.21 628.106L1477.44 681.165L1469.48 926.239C1469.48 926.239 1322.53 915.815 1286.1 928.234L1302.11 734.037L1343.11 638.858Z" fill="#3F3D56"/>
<path d="M1350.76 949.886L1288.71 933.696L1346.09 766.407L1351.29 673.007C1351.59 668.289 1352.95 663.683 1355.27 659.486C1357.6 655.288 1360.85 651.594 1364.8 648.641C1369.57 645.038 1375.08 642.394 1381 640.873C1386.91 639.352 1393.09 638.989 1399.17 639.805C1419.44 642.395 1434.36 656.857 1434.63 674.193L1434.63 674.278L1434.62 674.362L1414.69 805.276L1408.3 826.586L1350.76 949.886Z" fill="#CBCBCB"/>
<path d="M1423.66 572.568L1437.38 575.805L1458.18 555.177C1458.18 555.177 1496.41 472.458 1411.92 459.8C1327.42 447.141 1345.88 479.099 1334.58 499.139L1369.11 507.512L1400.18 537.142C1400.18 537.142 1420.45 523.288 1426.42 535.854C1432.38 548.419 1423.66 572.568 1423.66 572.568Z" fill="#2F2E41"/>
<path d="M942.922 1052.33H0V172.745H942.922V1052.33Z" fill="white"/>
<path d="M942.922 1052.33H0V172.745H942.922V1052.33ZM13.9316 1039.33H928.991V185.741H13.9316V1039.33Z" fill="#E5E5E5"/>
<path d="M799.143 550.865H194.417V570.778H799.143V550.865Z" fill="#4695D8"/>
<path d="M799.143 602.64H194.417V622.553H799.143V602.64Z" fill="#4695D8"/>
<path d="M799.143 654.414H194.417V674.327H799.143V654.414Z" fill="#4695D8"/>
<path d="M157.711 576.736C165.405 576.736 171.642 570.917 171.642 563.74C171.642 556.563 165.405 550.744 157.711 550.744C150.017 550.744 143.779 556.563 143.779 563.74C143.779 570.917 150.017 576.736 157.711 576.736Z" fill="#4695D8"/>
<path d="M799.143 327.772H194.417V347.685H799.143V327.772Z" fill="#E5E5E5"/>
<path d="M799.143 379.546H194.417V399.46H799.143V379.546Z" fill="#E5E5E5"/>
<path d="M799.143 431.32H194.417V451.233H799.143V431.32Z" fill="#E5E5E5"/>
<path d="M157.711 351.476C165.405 351.476 171.642 345.657 171.642 338.48C171.642 331.303 165.405 325.484 157.711 325.484C150.017 325.484 143.779 331.303 143.779 338.48C143.779 345.657 150.017 351.476 157.711 351.476Z" fill="#E5E5E5"/>
<path d="M799.143 776.125H194.417V796.038H799.143V776.125Z" fill="#E5E5E5"/>
<path d="M799.143 827.899H194.417V847.812H799.143V827.899Z" fill="#E5E5E5"/>
<path d="M799.143 879.673H194.417V899.586H799.143V879.673Z" fill="#E5E5E5"/>
<path d="M157.711 799.829C165.405 799.829 171.642 794.01 171.642 786.833C171.642 779.656 165.405 773.837 157.711 773.837C150.017 773.837 143.779 779.656 143.779 786.833C143.779 794.01 150.017 799.829 157.711 799.829Z" fill="#E5E5E5"/>
<path d="M1812.68 1390.44H1118.42C1117.8 1390.44 1117.21 1390.22 1116.78 1389.81C1116.34 1389.4 1116.1 1388.85 1116.1 1388.28C1116.1 1387.7 1116.34 1387.15 1116.78 1386.75C1117.21 1386.34 1117.8 1386.11 1118.42 1386.11H1812.68C1813.29 1386.11 1813.88 1386.34 1814.32 1386.75C1814.76 1387.15 1815 1387.7 1815 1388.28C1815 1388.85 1814.76 1389.4 1814.32 1389.81C1813.88 1390.22 1813.29 1390.44 1812.68 1390.44Z" fill="#CBCBCB"/>
</g>
<defs>
<clipPath id="clip0">
<rect width="1815" height="1391" fill="white"/>
</clipPath>
</defs>
</svg>
