<svg width="796" height="557" viewBox="0 0 796 557" fill="none" xmlns="http://www.w3.org/2000/svg">
<path d="M796 0H0V557H796V0Z" fill="#E4E2E2"/>
<path d="M796 0H0V557H796V0Z" fill="white"/>
<path d="M367.079 58.9604H170.715C169.751 58.9595 168.827 58.5553 168.145 57.838C167.464 57.1197 167.08 56.1463 167.079 55.1307V3.8298C167.08 2.81442 167.464 1.84096 168.145 1.12303C168.827 0.405008 169.751 0.00112528 170.715 0H367.079C368.043 0.00112528 368.967 0.405008 369.649 1.12303C370.33 1.84096 370.714 2.81442 370.715 3.8298V55.1307C370.714 56.1463 370.33 57.1197 369.649 57.838C368.967 58.5553 368.043 58.9595 367.079 58.9604ZM170.715 1.53189C170.137 1.53254 169.582 1.77485 169.173 2.20565C168.764 2.63644 168.533 3.22056 168.533 3.8298V55.1307C168.533 55.7403 168.764 56.3245 169.173 56.7549C169.582 57.1853 170.137 57.4282 170.715 57.4291H367.079C367.657 57.4282 368.211 57.1853 368.621 56.7549C369.03 56.3245 369.26 55.7403 369.26 55.1307V3.8298C369.26 3.22056 369.03 2.63644 368.621 2.20565C368.211 1.77485 367.657 1.53254 367.079 1.53189H170.715Z" fill="#3F3D56"/>
<path d="M201.226 43.1127C209.407 43.1127 216.039 36.1276 216.039 27.5117C216.039 18.8958 209.407 11.9116 201.226 11.9116C193.046 11.9116 186.413 18.8958 186.413 27.5117C186.413 36.1276 193.046 43.1127 201.226 43.1127Z" fill="#438BAC"/>
<path d="M235.436 17.1113C234.782 17.1113 234.153 17.3851 233.69 17.8727C233.228 18.3603 232.967 19.0224 232.967 19.7116C232.967 20.4008 233.228 21.0629 233.69 21.5505C234.153 22.0381 234.782 22.312 235.436 22.312H351.82C352.475 22.312 353.103 22.0381 353.567 21.5505C354.029 21.0629 354.29 20.4008 354.29 19.7116C354.29 19.0224 354.029 18.3603 353.567 17.8727C353.103 17.3851 352.475 17.1113 351.82 17.1113H235.436Z" fill="#E6E6E6"/>
<path d="M235.436 32.7124C234.782 32.7124 234.153 32.9862 233.69 33.4738C233.228 33.9614 232.967 34.6225 232.967 35.3127C232.967 36.0019 233.228 36.663 233.69 37.1507C234.153 37.6383 234.782 37.9121 235.436 37.9121H285.516C285.841 37.913 286.163 37.8465 286.463 37.7161C286.763 37.5858 287.035 37.3935 287.266 37.1525C287.495 36.9106 287.677 36.6246 287.802 36.3086C287.926 35.9926 287.99 35.654 287.99 35.3127C287.99 34.9704 287.926 34.6319 287.802 34.3159C287.677 34.0008 287.495 33.7139 287.266 33.4719C287.035 33.2309 286.763 33.0387 286.463 32.9084C286.163 32.778 285.841 32.7114 285.516 32.7124H235.436Z" fill="#E6E6E6"/>
<path d="M281.829 241.825H194.557C193.592 241.824 192.668 241.42 191.986 240.702C191.305 239.984 190.921 239.011 190.92 237.995V142.269C190.921 141.253 191.305 140.28 191.986 139.561C192.668 138.844 193.592 138.44 194.557 138.439H281.829C282.794 138.44 283.718 138.844 284.4 139.561C285.081 140.28 285.465 141.253 285.466 142.269V237.995C285.465 239.011 285.081 239.984 284.4 240.702C283.718 241.42 282.794 241.824 281.829 241.825ZM194.557 139.97C193.978 139.971 193.424 140.213 193.014 140.644C192.606 141.075 192.376 141.659 192.375 142.269V237.995C192.376 238.605 192.606 239.189 193.014 239.619C193.424 240.051 193.978 240.293 194.557 240.294H281.829C282.408 240.293 282.962 240.051 283.372 239.619C283.78 239.189 284.011 238.605 284.011 237.995V142.269C284.011 141.659 283.78 141.075 283.372 140.644C282.962 140.213 282.408 139.971 281.829 139.97H194.557Z" fill="#3F3D56"/>
<path d="M213.153 158.179C212.498 158.179 211.87 158.453 211.407 158.941C210.944 159.428 210.684 160.089 210.684 160.779C210.684 161.469 210.944 162.13 211.407 162.617C211.87 163.105 212.498 163.38 213.153 163.38H263.233C263.888 163.38 264.516 163.105 264.979 162.617C265.442 162.13 265.702 161.469 265.702 160.779C265.702 160.089 265.442 159.428 264.979 158.941C264.516 158.453 263.888 158.179 263.233 158.179H213.153Z" fill="#E6E6E6"/>
<path d="M213.153 173.499C212.828 173.498 212.507 173.565 212.206 173.695C211.906 173.825 211.634 174.017 211.404 174.258C211.174 174.499 210.993 174.786 210.867 175.102C210.743 175.418 210.68 175.757 210.68 176.098C210.68 176.441 210.743 176.779 210.867 177.095C210.993 177.41 211.174 177.697 211.404 177.939C211.634 178.18 211.906 178.371 212.206 178.503C212.507 178.633 212.828 178.7 213.153 178.699H263.233C263.888 178.699 264.516 178.425 264.979 177.937C265.442 177.45 265.702 176.788 265.702 176.098C265.702 175.409 265.442 174.748 264.979 174.26C264.516 173.773 263.888 173.499 263.233 173.499H213.153Z" fill="#E6E6E6"/>
<path d="M238.193 222.085C235.12 222.085 232.115 221.124 229.56 219.326C227.004 217.528 225.013 214.972 223.837 211.982C222.661 208.99 222.353 205.7 222.952 202.525C223.551 199.35 225.032 196.434 227.205 194.145C229.378 191.856 232.147 190.297 235.162 189.666C238.176 189.034 241.3 189.359 244.14 190.598C246.979 191.836 249.406 193.934 251.114 196.625C252.821 199.317 253.733 202.481 253.733 205.718C253.728 210.057 252.09 214.217 249.176 217.285C246.263 220.354 242.313 222.08 238.193 222.085Z" fill="#438BAC"/>
<path d="M168.2 121.972C183.643 109.375 201.687 100.784 220.869 96.8964C240.203 93.0161 260.14 94.0954 278.995 100.042C288.473 103.014 297.579 107.17 306.12 112.421C314.822 117.779 322.686 124.375 330.252 131.358C337.916 138.432 345.328 145.822 353.329 152.481C376.171 171.712 404.529 182.218 433.771 182.285C436.187 182.289 438.602 182.219 441.014 182.075C442.322 181.999 442.33 179.846 441.014 179.922C411.206 181.652 381.77 172.284 357.859 153.459C349.566 146.927 341.994 139.46 334.265 132.225C326.77 125.208 319.075 118.385 310.573 112.749C289.776 98.9491 265.582 91.9058 241.008 92.4956C216.435 93.0855 192.57 101.283 172.392 116.066C170.473 117.47 168.599 118.939 166.755 120.45C165.718 121.3 167.174 122.813 168.2 121.972Z" fill="#3F3D56"/>
<path d="M167.115 132.376C172.981 132.376 177.735 127.368 177.735 121.19C177.735 115.013 172.981 110.005 167.115 110.005C161.25 110.005 156.495 115.013 156.495 121.19C156.495 127.368 161.25 132.376 167.115 132.376Z" fill="#3F3D56"/>
<path d="M562.203 280.883C568.067 280.883 572.823 275.875 572.823 269.698C572.823 263.52 568.067 258.513 562.203 258.513C556.337 258.513 551.583 263.52 551.583 269.698C551.583 275.875 556.337 280.883 562.203 280.883Z" fill="#3F3D56"/>
<path d="M617.838 205.982H444.552C443.587 205.981 442.663 205.577 441.982 204.859C441.299 204.141 440.917 203.168 440.915 202.152V107.192C440.916 106.176 441.299 105.203 441.982 104.485C442.663 103.766 443.587 103.363 444.552 103.361H617.838C618.802 103.363 619.727 103.766 620.408 104.485C621.09 105.203 621.473 106.176 621.474 107.192V202.152C621.473 203.168 621.091 204.141 620.408 204.859C619.727 205.577 618.802 205.981 617.838 205.982ZM444.552 104.893C443.973 104.894 443.418 105.136 443.009 105.568C442.601 105.998 442.37 106.582 442.369 107.192V202.152C442.37 202.762 442.601 203.346 443.009 203.776C443.418 204.208 443.973 204.45 444.552 204.451H617.838C618.416 204.45 618.972 204.208 619.38 203.776C619.789 203.346 620.02 202.762 620.02 202.152V107.192C620.02 106.582 619.789 105.998 619.38 105.568C618.972 105.136 618.416 104.894 617.838 104.893H444.552Z" fill="#3F3D56"/>
<path d="M473.608 152.601C481.788 152.601 488.421 145.617 488.421 137.001C488.421 128.385 481.788 121.4 473.608 121.4C465.427 121.4 458.795 128.385 458.795 137.001C458.795 145.617 465.427 152.601 473.608 152.601Z" fill="#438BAC"/>
<path d="M507.818 126.601C507.494 126.6 507.171 126.667 506.872 126.797C506.572 126.927 506.299 127.12 506.069 127.361C505.839 127.602 505.657 127.888 505.533 128.204C505.409 128.521 505.344 128.859 505.344 129.2C505.344 129.543 505.409 129.881 505.533 130.197C505.657 130.513 505.839 130.799 506.069 131.041C506.299 131.282 506.572 131.474 506.872 131.605C507.171 131.735 507.494 131.802 507.818 131.801H601.126C601.781 131.801 602.408 131.527 602.872 131.039C603.334 130.552 603.595 129.891 603.595 129.2C603.595 128.511 603.334 127.85 602.872 127.362C602.408 126.875 601.781 126.601 601.126 126.601H507.818Z" fill="#E6E6E6"/>
<path d="M507.818 142.201C507.494 142.201 507.171 142.268 506.872 142.398C506.572 142.528 506.299 142.72 506.069 142.962C505.839 143.203 505.657 143.49 505.533 143.806C505.409 144.122 505.344 144.46 505.344 144.801C505.344 145.144 505.409 145.482 505.533 145.797C505.657 146.113 505.839 146.4 506.069 146.642C506.299 146.883 506.572 147.075 506.872 147.205C507.171 147.335 507.494 147.403 507.818 147.402H557.899C558.553 147.402 559.182 147.128 559.644 146.64C560.107 146.153 560.367 145.491 560.367 144.801C560.367 144.112 560.107 143.45 559.644 142.963C559.182 142.475 558.553 142.201 557.899 142.201H507.818Z" fill="#E6E6E6"/>
<path d="M462.246 167.142C460.368 167.142 458.84 168.309 458.84 169.742C458.84 171.176 460.368 172.343 462.246 172.343H599.744C601.623 172.343 603.15 171.176 603.15 169.742C603.15 168.309 601.623 167.142 599.744 167.142H462.246Z" fill="#E6E6E6"/>
<path d="M462.246 182.743C460.368 182.743 458.84 183.91 458.84 185.343C458.84 186.777 460.368 187.944 462.246 187.944H599.744C601.623 187.944 603.15 186.777 603.15 185.343C603.15 183.91 601.623 182.743 599.744 182.743H462.246Z" fill="#E6E6E6"/>
<path d="M430.622 280.111C440.398 275.644 451.313 279.539 460.528 283.655C465.273 285.775 469.968 288.038 474.879 289.712C479.011 291.117 483.242 292.174 487.533 292.87C496.143 294.26 504.901 294.316 513.526 293.038C522.197 291.765 530.646 289.178 538.612 285.356C546.534 281.574 553.856 276.532 560.322 270.407C561.145 269.624 561.952 268.823 562.743 268.005C563.684 267.034 562.238 265.512 561.297 266.483C555.071 272.876 547.923 278.19 540.118 282.229C532.346 286.255 524.055 289.059 515.511 290.555C506.939 292.077 498.198 292.236 489.582 291.027C485.283 290.414 481.037 289.442 476.885 288.12C472.117 286.486 467.439 284.572 462.873 282.388C453.572 278.181 443.238 274.062 433.019 276.963C431.848 277.304 430.702 277.735 429.591 278.252C428.387 278.802 429.427 280.657 430.622 280.111Z" fill="#3F3D56"/>
<path d="M426.844 306.509H344.975L364.242 271.362C364.587 270.731 365.083 270.208 365.682 269.844C366.28 269.48 366.959 269.289 367.649 269.289C368.339 269.289 369.018 269.48 369.617 269.844C370.215 270.208 370.711 270.731 371.056 271.362L379.287 286.376L393.282 260.847C393.714 260.058 394.335 259.403 395.084 258.948C395.834 258.492 396.683 258.252 397.548 258.252C398.412 258.252 399.261 258.492 400.011 258.948C400.759 259.403 401.381 260.058 401.813 260.847L426.844 306.509Z" fill="#438BAC"/>
<path d="M426.922 306.499H339.649C338.684 306.498 337.76 306.094 337.079 305.376C336.397 304.658 336.014 303.684 336.012 302.669V251.368C336.014 250.353 336.397 249.379 337.079 248.661C337.76 247.944 338.684 247.539 339.649 247.539H426.922C427.886 247.539 428.81 247.944 429.492 248.661C430.173 249.379 430.557 250.353 430.558 251.368V302.669C430.557 303.684 430.173 304.658 429.492 305.376C428.81 306.094 427.886 306.498 426.922 306.499ZM339.649 249.07C339.07 249.071 338.516 249.314 338.106 249.744C337.698 250.174 337.468 250.759 337.467 251.368V302.669C337.468 303.278 337.698 303.863 338.106 304.293C338.516 304.724 339.07 304.966 339.649 304.967H426.922C427.5 304.966 428.055 304.724 428.464 304.293C428.873 303.863 429.103 303.278 429.104 302.669V251.368C429.103 250.759 428.873 250.174 428.464 249.744C428.055 249.314 427.5 249.071 426.922 249.07H339.649Z" fill="#3F3D56"/>
<path d="M598.096 261.348L582.54 269.668C576.987 272.638 571.629 272.131 569.577 265.939C569.089 264.465 568.909 262.898 569.049 261.344C569.188 259.79 569.646 258.287 570.389 256.936C571.132 255.586 572.143 254.42 573.353 253.52C574.564 252.619 575.945 252.005 577.401 251.719L592.186 248.812L655.506 226.686L693.863 198.04L707.924 221.634L663.604 246.822L598.096 261.348Z" fill="#FFB8B8"/>
<path d="M670.714 537.504L658.812 535.415L660.134 511.737H672.698L670.714 537.504Z" fill="#FFB8B8"/>
<path d="M786.229 514.378L774.71 518.163L765.759 496.399L776.973 490.436L786.229 514.378Z" fill="#FFB8B8"/>
<path d="M779.814 493.63L765.268 499.898L695.84 403.796L674.02 516.612L659.473 513.826C650.141 416.564 642.532 317.356 651.868 270.435L705.758 267.998L730.223 350.172L742.125 405.885L779.814 493.63Z" fill="#2F2E41"/>
<path d="M670.059 556.654C667.882 557.144 665.615 556.891 663.585 555.929L656.515 552.578C650.586 552.258 646.549 553.501 643.249 548.964C642.317 547.667 641.733 546.131 641.554 544.517C641.377 542.902 641.613 541.265 642.239 539.779C642.858 538.287 643.844 536.996 645.094 536.039C646.344 535.08 647.813 534.49 649.351 534.328L659.063 527.883L659.573 532.714C664.011 535.362 669.281 534.219 674.864 531.641L677.913 542.876C678.305 544.325 678.411 545.843 678.225 547.337C678.037 548.831 677.56 550.268 676.824 551.56C676.088 552.852 675.108 553.97 673.943 554.847C672.78 555.722 671.458 556.338 670.059 556.654Z" fill="#2F2E41"/>
<path d="M790.942 533.606C789.036 534.815 786.811 535.35 784.596 535.135L776.875 534.383C771.169 536.108 767.735 538.665 763.214 535.503C761.934 534.595 760.907 533.343 760.241 531.876C759.575 530.409 759.294 528.781 759.427 527.161C759.553 525.539 760.087 523.98 760.974 522.647C761.861 521.313 763.069 520.252 764.474 519.573L771.671 510.156L773.643 514.551C778.658 515.538 783.289 512.653 787.775 508.306L794.122 517.89C794.941 519.126 795.51 520.526 795.793 522.003C796.076 523.479 796.069 525.001 795.77 526.475C795.473 527.949 794.89 529.342 794.06 530.569C793.229 531.795 792.167 532.83 790.942 533.606Z" fill="#2F2E41"/>
<path d="M685.921 169.109C699.068 169.109 709.725 157.885 709.725 144.038C709.725 130.192 699.068 118.968 685.921 118.968C672.775 118.968 662.118 130.192 662.118 144.038C662.118 157.885 672.775 169.109 685.921 169.109Z" fill="#FFB8B8"/>
<path d="M715.015 196.965L683.938 190.001L679.971 162.842L701.791 157.967L715.015 196.965Z" fill="#FFB8B8"/>
<path d="M706.419 271.48H650.877L663.396 238.376C662.486 226.984 667.07 218.607 673.631 211.313L681.954 189.304C695.402 179.982 705.542 180.679 716.338 192.786C729.138 211.875 720.278 240.569 706.419 271.48Z" fill="#438BAC"/>
<path d="M681.293 341.816L679.713 360.116C679.149 366.647 675.892 371.158 669.822 369.696C668.378 369.348 667.022 368.676 665.847 367.725C664.672 366.774 663.705 365.567 663.014 364.186C662.324 362.806 661.925 361.284 661.843 359.726C661.763 358.167 662.002 356.609 662.546 355.157L668.069 340.423L683.938 272.176L681.293 222.732H707.742L704.436 275.658L681.293 341.816Z" fill="#FFB8B8"/>
<path d="M709.725 224.124H679.31L681.442 203.227C681.582 199.613 683 196.184 685.417 193.615C687.834 191.046 691.077 189.52 694.508 189.34C696.325 189.244 698.143 189.529 699.855 190.178C701.567 190.827 703.141 191.828 704.484 193.121C705.827 194.415 706.913 195.976 707.68 197.715C708.445 199.453 708.877 201.335 708.948 203.25L709.725 224.124Z" fill="#438BAC"/>
<path d="M715.383 118.261C720.324 118.261 724.329 114.042 724.329 108.838C724.329 103.633 720.324 99.4142 715.383 99.4142C710.441 99.4142 706.435 103.633 706.435 108.838C706.435 114.042 710.441 118.261 715.383 118.261Z" fill="#2F2E41"/>
<path d="M706.163 106.531C706.31 104.139 707.317 101.897 708.979 100.261C710.64 98.6246 712.832 97.7169 715.106 97.7225C714.921 97.6982 714.738 97.6682 714.55 97.655C712.183 97.4965 709.852 98.3339 708.071 99.9843C706.29 101.635 705.204 103.962 705.052 106.455C704.9 108.948 705.694 111.403 707.26 113.28C708.825 115.156 711.035 116.302 713.402 116.463C713.59 116.476 713.776 116.471 713.961 116.472C711.705 116.171 709.642 114.974 708.193 113.128C706.744 111.28 706.018 108.921 706.163 106.531Z" fill="#2F2E41"/>
<path d="M706.112 110.554C698.133 103.582 675.245 112.443 673.769 117.131C662.978 118.679 654.809 125.31 654.809 137.1C661.223 139.867 668.52 139.527 676.407 137.1C688.98 147.89 689.841 161.457 682.195 177.038L691.602 177.236L703.263 159.288L703.82 177.494L725.383 177.038V150.947C725.453 142.273 723.557 133.706 719.853 125.958C716.493 119.082 711.279 115.068 706.112 110.554Z" fill="#2F2E41"/>
<path d="M686.033 156.65C688.396 156.65 690.312 153.825 690.312 150.341C690.312 146.857 688.396 144.033 686.033 144.033C683.671 144.033 681.754 146.857 681.754 150.341C681.754 153.825 683.671 156.65 686.033 156.65Z" fill="#FFB8B8"/>
<path d="M147.687 158.346C147.687 158.346 150.262 111.396 163.632 122.064C177.003 132.732 157.793 162.701 157.793 162.701L147.687 158.346Z" fill="#FFB9B9"/>
<path d="M97.9404 297.615C97.9404 297.615 127.642 332.732 111.025 335.146C94.4077 337.56 87.871 302.063 87.871 302.063L97.9404 297.615Z" fill="#FFB9B9"/>
<path d="M59.1833 131.385C62.911 132.419 66.2659 134.589 68.8266 137.624C71.3871 140.659 73.0393 144.422 73.5757 148.443L83.023 219.265L96.2679 275.759C96.2679 275.759 102.89 282.036 100.241 285.523C97.5917 289.011 103.552 303.657 103.552 303.657L86.9964 309.237C86.9964 309.237 85.0101 294.59 81.6992 293.893C78.789 293.28 46.2146 201.632 38.3629 179.43C37.2803 176.369 36.6677 174.628 36.6677 174.628C36.6677 174.628 37.9922 127.898 59.1833 131.385Z" fill="#575A89"/>
<path d="M62.2072 500.718L72.3761 519.697C80.2512 537.404 73.253 540.62 53.945 531.843L49.5438 509.433L62.2072 500.718Z" fill="#FFB9B9"/>
<path d="M67.338 525.942C67.338 525.942 72.1653 517.665 73.9113 519.051C75.6573 520.436 82.859 526.44 82.859 526.44L92.2395 535.902C92.2395 535.902 123.931 539.431 103.793 551.126C83.655 562.821 72.5267 553.124 72.5267 553.124C72.5267 553.124 44.3217 554.668 44.7767 546.381C45.2316 538.093 54.3279 524.981 54.3279 524.981C54.3279 524.981 65.7924 533.076 67.338 525.942Z" fill="#2F2E41"/>
<path d="M17.0829 286.184L26.6162 407.675C26.6162 407.675 26.9341 480.302 37.1029 494.358C47.2718 508.416 47.5896 515.444 47.5896 515.444L68.5629 504.065C68.5629 504.065 57.7584 485.103 59.9828 482.2C61.354 480.36 62.3298 478.227 62.8428 475.95L57.1228 400.982L67.9273 270.455L17.0829 286.184Z" fill="#2F2E41"/>
<path d="M43.1403 500.718L34.2425 525.484L14.0636 516.599L24.7093 498.04L43.1403 500.718Z" fill="#FFB9B9"/>
<path d="M28.2964 517.142C28.2964 517.142 35.8646 512.161 36.8106 514.154C37.7566 516.147 41.5407 524.615 41.5407 524.615L45.7978 537.069C45.7978 537.069 71.8132 554.505 49.5818 555.502C27.3504 556.498 21.6744 543.047 21.6744 543.047C21.6744 543.047 -3.39504 531.59 0.389001 524.615C4.17314 517.64 17.4173 510.408 17.4173 510.408C17.4173 510.408 24.0394 522.622 28.2964 517.142Z" fill="#2F2E41"/>
<path d="M97.7983 286.519L102.883 398.304C102.883 398.304 56.4873 499.379 51.4029 502.056C49.8878 502.88 48.5449 504.016 47.4533 505.395C46.3616 506.775 45.5435 508.371 45.0473 510.089L17.0829 502.726L29.794 481.306L57.7585 409.684C57.7585 409.684 62.2073 407.675 63.4784 400.982C64.7495 394.288 67.2917 394.288 60.9362 392.949C54.5806 391.611 54.5806 384.916 54.5806 384.916L33.6073 283.172L97.7983 286.519Z" fill="#2F2E41"/>
<path d="M100.012 88.6584C102.262 74.0626 92.8498 60.3098 78.9909 57.9411C65.1316 55.5724 52.0735 65.4852 49.8245 80.081C47.5754 94.6778 56.9872 108.431 70.8462 110.799C84.705 113.168 97.7632 103.255 100.012 88.6584Z" fill="#FFB9B9"/>
<path d="M52.3561 86.0431C52.3561 86.0431 50.4495 120.181 47.9073 123.528C45.3651 126.875 74.6006 126.205 74.6006 126.205C74.6006 126.205 72.694 97.4225 74.6006 94.7453C76.5071 92.068 52.3561 86.0431 52.3561 86.0431Z" fill="#FFB9B9"/>
<path d="M99.703 293.883C99.703 293.883 27.8848 287.191 14.5415 293.883C14.5415 293.883 19.4536 274.692 18.1844 272.687C17.2613 271.219 19.8079 216.552 19.0085 185.017C18.5553 167.223 14.657 149.845 25.9893 136.634C29.8464 132.146 34.1485 128.379 38.6897 126.538C38.6897 126.538 37.4204 113.822 43.7748 113.154C43.7748 113.154 67.9311 110.471 76.8236 118.509C79.6674 121.061 81.4556 128.838 81.6451 135.539C77.2444 158.334 78.8023 183.628 82.8401 209.868C83.0874 211.534 83.3594 213.21 83.6313 214.885C87.9174 240.909 94.3954 267.739 99.703 293.883Z" fill="#575A89"/>
<path d="M61.6375 92.2593C63.7874 92.1243 65.8867 92.8895 68.0217 93.1886C75.6602 94.2567 83.6067 88.4184 85.2935 80.4992C85.429 79.4452 85.7265 78.4212 86.1767 77.4685C87.3527 75.4467 90.0297 75.0613 92.2367 75.5264C94.4437 75.9906 96.5361 77.0793 98.7838 77.2031C102.254 77.3953 105.586 75.1448 107.436 72.0456C109.184 68.8488 109.927 65.1523 109.559 61.4829L107.895 63.3218C107.22 61.8158 106.959 60.1401 107.143 58.485C106.261 58.2375 105.334 58.2328 104.45 58.471C103.566 58.7091 102.754 59.1827 102.094 59.8457C100.627 60.0098 101.735 56.98 100.644 55.9325C100.114 55.5893 99.4822 55.4646 98.871 55.5827C95.7495 55.6146 93.2251 53.1005 90.766 51.0769C86.5045 47.5773 81.521 45.1842 76.2191 44.088C72.695 43.3641 68.9476 43.2478 65.6054 44.63C62.9074 45.9063 60.4725 47.7255 58.4377 49.9854C53.2052 55.2845 48.5718 61.5101 46.395 68.8038C44.6253 74.7781 44.5752 81.1697 46.2509 87.174C47.1281 90.292 49.7715 100.97 53.6415 101.218C58.5043 101.532 55.5847 92.6401 61.6375 92.2593Z" fill="#2F2E41"/>
<path d="M72.1602 134.672L81.268 135.7C81.268 135.7 90.2088 153.968 89.5597 157.779C88.9105 161.59 87.4967 159.276 91.5203 165.372C95.5448 171.469 106.964 187.227 108.378 189.541C109.791 191.854 148.34 160.878 145.943 151.596C145.943 151.596 158.118 160.795 163.334 162.02C163.334 162.02 123.607 216.894 118.071 223.916C112.535 230.939 108.079 229.497 100.471 225.333C92.8621 221.169 54.3728 179.637 54.3728 179.637L72.1602 134.672Z" fill="#575A89"/>
<path opacity="0.1" d="M83.6314 214.885L51.9752 181.545L59.9861 178.793L82.8401 209.868C83.0874 211.534 83.3594 213.21 83.6314 214.885Z" fill="black"/>
</svg>
