<svg width="869" height="690" viewBox="0 0 869 690" fill="none" xmlns="http://www.w3.org/2000/svg">
<rect width="869" height="690" fill="#E4E2E2"/>
<rect id="Rectangle 1" width="869" height="690" fill="white"/>
<g id="landing-page 1" clip-path="url(#clip0)">
<path id="Vector" d="M407.369 150.999H200.151C199.134 150.998 198.159 150.567 197.439 149.802C196.72 149.036 196.315 147.998 196.314 146.915V92.2076C196.315 91.1248 196.72 90.0867 197.439 89.3211C198.159 88.5554 199.134 88.1247 200.151 88.1235H407.369C408.386 88.1247 409.361 88.5554 410.081 89.3211C410.8 90.0867 411.205 91.1248 411.206 92.2076V146.915C411.205 147.998 410.8 149.036 410.081 149.802C409.361 150.567 408.386 150.998 407.369 150.999V150.999ZM200.151 89.7571C199.541 89.7578 198.956 90.0162 198.524 90.4756C198.092 90.935 197.849 91.5579 197.849 92.2076V146.915C197.849 147.565 198.092 148.188 198.524 148.647C198.956 149.106 199.541 149.365 200.151 149.366H407.369C407.979 149.365 408.564 149.106 408.996 148.647C409.428 148.188 409.671 147.565 409.671 146.915V92.2076C409.671 91.5579 409.428 90.935 408.996 90.4756C408.564 90.0162 407.979 89.7578 407.369 89.7571L200.151 89.7571Z" fill="#3F3D56"/>
<path id="Vector_2" d="M232.349 134.099C240.982 134.099 247.98 126.65 247.98 117.462C247.98 108.274 240.982 100.826 232.349 100.826C223.716 100.826 216.717 108.274 216.717 117.462C216.717 126.65 223.716 134.099 232.349 134.099Z" fill="#28BAEE"/>
<path id="Vector_3" d="M268.45 106.371C267.759 106.371 267.096 106.663 266.607 107.183C266.119 107.703 265.844 108.409 265.844 109.144C265.844 109.879 266.119 110.585 266.607 111.105C267.096 111.625 267.759 111.917 268.45 111.917H391.267C391.958 111.917 392.621 111.625 393.11 111.105C393.598 110.585 393.873 109.879 393.873 109.144C393.873 108.409 393.598 107.703 393.11 107.183C392.621 106.663 391.958 106.371 391.267 106.371H268.45Z" fill="#E6E6E6"/>
<path id="Vector_4" d="M268.45 123.008C267.759 123.008 267.096 123.3 266.607 123.82C266.119 124.34 265.844 125.045 265.844 125.781C265.844 126.516 266.119 127.221 266.607 127.741C267.096 128.261 267.759 128.553 268.45 128.553H321.298C321.641 128.554 321.98 128.483 322.297 128.344C322.614 128.205 322.901 128 323.144 127.743C323.386 127.485 323.578 127.18 323.71 126.843C323.841 126.506 323.908 126.145 323.908 125.781C323.908 125.416 323.841 125.055 323.71 124.718C323.578 124.382 323.386 124.076 323.144 123.818C322.901 123.561 322.614 123.356 322.297 123.217C321.98 123.078 321.641 123.007 321.298 123.008H268.45Z" fill="#E6E6E6"/>
<path id="Vector_5" d="M317.407 346.006H225.311C224.293 346.005 223.318 345.574 222.598 344.809C221.879 344.043 221.474 343.005 221.473 341.922V239.839C221.474 238.756 221.879 237.718 222.598 236.952C223.318 236.187 224.293 235.756 225.311 235.755H317.407C318.425 235.756 319.4 236.187 320.12 236.952C320.839 237.718 321.244 238.756 321.245 239.839V341.922C321.244 343.005 320.839 344.043 320.12 344.809C319.4 345.574 318.425 346.005 317.407 346.006ZM225.311 237.388C224.7 237.389 224.115 237.647 223.683 238.107C223.252 238.566 223.009 239.189 223.008 239.839V341.922C223.009 342.572 223.252 343.195 223.683 343.654C224.115 344.114 224.7 344.372 225.311 344.373H317.407C318.018 344.372 318.603 344.114 319.035 343.654C319.466 343.195 319.709 342.572 319.71 341.922V239.839C319.709 239.189 319.466 238.566 319.035 238.107C318.603 237.647 318.018 237.389 317.407 237.388H225.311Z" fill="#3F3D56"/>
<path id="Vector_6" d="M244.935 256.806C244.244 256.806 243.581 257.098 243.092 257.618C242.604 258.138 242.329 258.843 242.329 259.579C242.329 260.314 242.604 261.019 243.092 261.539C243.581 262.059 244.244 262.352 244.935 262.352H297.783C298.474 262.352 299.137 262.059 299.626 261.539C300.114 261.019 300.389 260.314 300.389 259.579C300.389 258.843 300.114 258.138 299.626 257.618C299.137 257.098 298.474 256.806 297.783 256.806H244.935Z" fill="#E6E6E6"/>
<path id="Vector_7" d="M244.935 273.143C244.592 273.142 244.253 273.213 243.936 273.352C243.619 273.491 243.332 273.695 243.089 273.953C242.847 274.21 242.655 274.516 242.523 274.853C242.392 275.19 242.325 275.551 242.325 275.915C242.325 276.28 242.392 276.641 242.523 276.978C242.655 277.314 242.847 277.62 243.089 277.878C243.332 278.135 243.619 278.339 243.936 278.479C244.253 278.618 244.592 278.689 244.935 278.688H297.783C298.474 278.688 299.137 278.396 299.626 277.876C300.114 277.356 300.389 276.651 300.389 275.915C300.389 275.18 300.114 274.475 299.626 273.955C299.137 273.435 298.474 273.143 297.783 273.143H244.935Z" fill="#E6E6E6"/>
<path id="Vector_8" d="M271.359 324.955C268.116 324.955 264.945 323.931 262.249 322.013C259.552 320.096 257.45 317.37 256.209 314.181C254.968 310.991 254.643 307.482 255.276 304.097C255.908 300.711 257.47 297.601 259.764 295.16C262.057 292.719 264.979 291.057 268.16 290.384C271.341 289.71 274.638 290.056 277.635 291.377C280.631 292.698 283.192 294.935 284.994 297.805C286.796 300.675 287.758 304.05 287.758 307.502C287.753 312.129 286.024 316.565 282.949 319.837C279.875 323.109 275.707 324.95 271.359 324.955V324.955Z" fill="#28BAEE"/>
<path id="Vector_9" d="M468.277 7H560.374C561.392 7.00127 562.367 7.43197 563.086 8.19762C563.806 8.96327 564.21 10.0013 564.212 11.0841V113.168C564.21 114.25 563.806 115.288 563.086 116.054C562.367 116.82 561.392 117.25 560.374 117.252H468.277C467.26 117.25 466.285 116.82 465.565 116.054C464.846 115.288 464.441 114.25 464.44 113.168V11.0841C464.441 10.0013 464.846 8.96327 465.565 8.19762C466.285 7.43197 467.26 7.00127 468.277 7V7ZM560.374 115.618C560.985 115.617 561.57 115.359 562.002 114.9C562.433 114.44 562.676 113.817 562.677 113.168V11.0841C562.676 10.4344 562.433 9.81157 562.002 9.35217C561.57 8.89276 560.985 8.63436 560.374 8.63365H468.277C467.667 8.63436 467.082 8.89276 466.65 9.35217C466.218 9.81157 465.976 10.4344 465.975 11.0841V113.168C465.976 113.817 466.218 114.44 466.65 114.9C467.082 115.359 467.667 115.617 468.277 115.618H560.374Z" fill="#3F3D56"/>
<path id="Vector_10" d="M540.75 96.2003C541.441 96.2003 542.104 95.9082 542.592 95.3882C543.081 94.8682 543.355 94.1629 543.355 93.4275C543.355 92.6921 543.081 91.9869 542.592 91.4669C542.104 90.9469 541.441 90.6547 540.75 90.6547H487.901C487.21 90.6547 486.548 90.9469 486.059 91.4669C485.571 91.9869 485.296 92.6921 485.296 93.4275C485.296 94.1629 485.571 94.8682 486.059 95.3882C486.548 95.9082 487.21 96.2003 487.901 96.2003H540.75Z" fill="#E6E6E6"/>
<path id="Vector_11" d="M540.75 79.8637C541.441 79.8637 542.104 79.5716 542.592 79.0516C543.081 78.5316 543.355 77.8264 543.355 77.091C543.355 76.3556 543.081 75.6503 542.592 75.1303C542.104 74.6103 541.441 74.3182 540.75 74.3182H487.901C487.21 74.3182 486.548 74.6103 486.059 75.1303C485.571 75.6503 485.296 76.3556 485.296 77.091C485.296 77.8264 485.571 78.5316 486.059 79.0516C486.548 79.5716 487.21 79.8637 487.901 79.8637H540.75Z" fill="#E6E6E6"/>
<path id="Vector_12" d="M514.326 28.0515C517.569 28.0515 520.739 29.0751 523.436 30.9929C526.133 32.9107 528.235 35.6365 529.476 38.8257C530.717 42.0149 531.042 45.5241 530.409 48.9098C529.777 52.2954 528.215 55.4053 525.921 57.8461C523.628 60.287 520.706 61.9493 517.525 62.6227C514.344 63.2962 511.047 62.9505 508.05 61.6295C505.054 60.3085 502.492 58.0715 500.691 55.2013C498.889 52.3311 497.927 48.9567 497.927 45.5048C497.932 40.8775 499.661 36.4412 502.735 33.1692C505.81 29.8972 509.978 28.0567 514.326 28.0515Z" fill="#28BAEE"/>
<path id="Vector_13" d="M197.497 218.195C213.794 204.761 232.835 195.6 253.077 191.454C273.48 187.316 294.519 188.467 314.416 194.808C324.418 197.978 334.028 202.41 343.041 208.009C352.224 213.723 360.522 220.757 368.506 228.204C376.594 235.748 384.416 243.628 392.859 250.73C416.964 271.237 446.889 282.441 477.748 282.513C480.297 282.517 482.845 282.442 485.391 282.289C486.771 282.208 486.78 279.912 485.391 279.993C453.935 281.837 422.872 271.847 397.639 251.772C388.888 244.807 380.898 236.844 372.741 229.128C364.832 221.646 356.712 214.369 347.74 208.359C325.793 193.643 300.262 186.132 274.33 186.761C248.398 187.39 223.214 196.132 201.921 211.896C199.896 213.394 197.918 214.96 195.972 216.572C194.878 217.478 196.414 219.092 197.497 218.195V218.195Z" fill="#3F3D56"/>
<path id="Vector_14" d="M196.352 229.289C202.542 229.289 207.559 223.949 207.559 217.361C207.559 210.774 202.542 205.433 196.352 205.433C190.163 205.433 185.145 210.774 185.145 217.361C185.145 223.949 190.163 229.289 196.352 229.289Z" fill="#3F3D56"/>
<path id="Vector_15" d="M613.278 387.658C619.467 387.658 624.485 382.317 624.485 375.73C624.485 369.142 619.467 363.802 613.278 363.802C607.088 363.802 602.071 369.142 602.071 375.73C602.071 382.317 607.088 387.658 613.278 387.658Z" fill="#3F3D56"/>
<path id="Vector_16" d="M671.989 307.783H489.124C488.106 307.782 487.131 307.351 486.412 306.586C485.692 305.82 485.288 304.782 485.286 303.699V202.433C485.287 201.35 485.692 200.312 486.412 199.546C487.131 198.78 488.106 198.35 489.124 198.348H671.989C673.006 198.35 673.982 198.78 674.701 199.546C675.42 200.312 675.825 201.35 675.826 202.433V303.699C675.825 304.782 675.421 305.82 674.701 306.586C673.982 307.351 673.006 307.782 671.989 307.783ZM489.124 199.982C488.513 199.983 487.928 200.241 487.496 200.701C487.065 201.16 486.822 201.783 486.821 202.433V303.699C486.822 304.349 487.065 304.972 487.496 305.431C487.928 305.891 488.513 306.149 489.124 306.15H671.989C672.599 306.149 673.185 305.891 673.616 305.431C674.048 304.972 674.291 304.349 674.291 303.699V202.433C674.291 201.783 674.048 201.16 673.616 200.701C673.185 200.241 672.599 199.983 671.989 199.982H489.124Z" fill="#3F3D56"/>
<path id="Vector_17" d="M519.786 250.858C528.419 250.858 535.418 243.41 535.418 234.222C535.418 225.034 528.419 217.585 519.786 217.585C511.153 217.585 504.155 225.034 504.155 234.222C504.155 243.41 511.153 250.858 519.786 250.858Z" fill="#28BAEE"/>
<path id="Vector_18" d="M555.887 223.131C555.545 223.13 555.205 223.201 554.889 223.34C554.572 223.479 554.284 223.684 554.042 223.941C553.799 224.199 553.607 224.504 553.476 224.841C553.345 225.178 553.277 225.539 553.277 225.903C553.277 226.268 553.345 226.629 553.476 226.966C553.607 227.303 553.799 227.608 554.042 227.866C554.284 228.123 554.572 228.328 554.889 228.467C555.205 228.606 555.545 228.677 555.887 228.676H654.353C655.044 228.676 655.706 228.384 656.195 227.864C656.683 227.344 656.958 226.639 656.958 225.903C656.958 225.168 656.683 224.463 656.195 223.943C655.706 223.423 655.044 223.131 654.353 223.131H555.887Z" fill="#E6E6E6"/>
<path id="Vector_19" d="M555.887 239.767C555.545 239.767 555.205 239.838 554.889 239.977C554.572 240.116 554.284 240.32 554.042 240.578C553.799 240.835 553.607 241.141 553.476 241.478C553.345 241.815 553.277 242.176 553.277 242.54C553.277 242.905 553.345 243.266 553.476 243.602C553.607 243.939 553.799 244.245 554.042 244.503C554.284 244.76 554.572 244.964 554.889 245.103C555.205 245.242 555.545 245.314 555.887 245.313H608.736C609.427 245.313 610.09 245.021 610.578 244.501C611.067 243.981 611.341 243.275 611.341 242.54C611.341 241.805 611.067 241.099 610.578 240.579C610.09 240.059 609.427 239.767 608.736 239.767H555.887Z" fill="#E6E6E6"/>
<path id="Vector_20" d="M507.796 266.364C505.815 266.364 504.202 267.608 504.202 269.137C504.202 270.666 505.815 271.91 507.796 271.91H652.895C654.877 271.91 656.489 270.666 656.489 269.137C656.489 267.608 654.877 266.364 652.895 266.364H507.796Z" fill="#E6E6E6"/>
<path id="Vector_21" d="M507.796 283.001C505.815 283.001 504.202 284.245 504.202 285.774C504.202 287.303 505.815 288.547 507.796 288.547H652.895C654.877 288.547 656.489 287.303 656.489 285.774C656.489 284.245 654.877 283.001 652.895 283.001H507.796Z" fill="#E6E6E6"/>
<path id="Vector_22" d="M474.424 386.834C484.741 382.071 496.259 386.224 505.983 390.614C510.991 392.875 515.945 395.288 521.128 397.073C525.488 398.571 529.953 399.698 534.481 400.441C543.567 401.923 552.809 401.983 561.911 400.62C571.061 399.262 579.977 396.503 588.384 392.428C596.743 388.395 604.47 383.018 611.294 376.486C612.162 375.651 613.014 374.797 613.848 373.924C614.841 372.889 613.316 371.266 612.323 372.301C605.752 379.119 598.209 384.786 589.973 389.093C581.771 393.386 573.022 396.377 564.006 397.972C554.96 399.595 545.736 399.765 536.643 398.475C532.107 397.822 527.626 396.785 523.245 395.375C518.213 393.633 513.276 391.592 508.458 389.263C498.643 384.776 487.738 380.384 476.954 383.477C475.718 383.841 474.509 384.301 473.336 384.852C472.066 385.439 473.163 387.417 474.424 386.834V386.834Z" fill="#3F3D56"/>
<path id="Vector_23" d="M470.438 414.985H384.043L404.375 377.504C404.739 376.832 405.263 376.274 405.895 375.886C406.526 375.498 407.242 375.294 407.971 375.294C408.699 375.294 409.415 375.498 410.047 375.886C410.678 376.274 411.202 376.832 411.566 377.504L420.252 393.515L435.02 366.291C435.476 365.45 436.132 364.751 436.922 364.266C437.713 363.78 438.609 363.524 439.522 363.524C440.434 363.524 441.33 363.78 442.121 364.266C442.911 364.751 443.567 365.45 444.023 366.291L470.438 414.985Z" fill="#28BAEE"/>
<path id="Vector_24" d="M470.52 414.975H378.423C377.405 414.973 376.43 414.543 375.711 413.777C374.991 413.011 374.587 411.973 374.585 410.89V356.183C374.587 355.1 374.991 354.062 375.711 353.296C376.43 352.531 377.405 352.1 378.423 352.099H470.52C471.537 352.1 472.512 352.531 473.232 353.296C473.951 354.062 474.356 355.1 474.357 356.183V410.89C474.356 411.973 473.951 413.011 473.232 413.777C472.512 414.543 471.537 414.973 470.52 414.975ZM378.423 353.732C377.812 353.733 377.227 353.992 376.795 354.451C376.364 354.91 376.121 355.533 376.12 356.183V410.89C376.121 411.54 376.364 412.163 376.795 412.622C377.227 413.082 377.812 413.34 378.423 413.341H470.52C471.13 413.34 471.715 413.082 472.147 412.622C472.579 412.163 472.821 411.54 472.822 410.89V356.183C472.821 355.533 472.579 354.91 472.147 354.451C471.715 353.992 471.13 353.733 470.52 353.732H378.423Z" fill="#3F3D56"/>
<path id="Vector_25" d="M651.156 366.826L634.74 375.698C628.88 378.865 623.226 378.324 621.06 371.721C620.545 370.149 620.355 368.478 620.503 366.821C620.65 365.164 621.133 363.561 621.917 362.121C622.701 360.681 623.768 359.438 625.045 358.478C626.323 357.517 627.78 356.862 629.317 356.557L644.919 353.457L711.739 329.862L752.216 299.314L767.054 324.474L720.284 351.335L651.156 366.826Z" fill="#FFB8B8"/>
<path id="Vector_26" d="M727.787 661.319L715.227 659.091L716.622 633.841H729.881L727.787 661.319Z" fill="#FFB8B8"/>
<path id="Vector_27" d="M849.687 636.657L837.532 640.693L828.086 617.484L839.92 611.125L849.687 636.657Z" fill="#FFB8B8"/>
<path id="Vector_28" d="M842.918 614.532L827.568 621.216L754.302 518.732L731.276 639.039L715.925 636.069C706.077 532.348 698.048 426.553 707.9 376.516L764.768 373.917L790.586 461.548L803.146 520.96L842.918 614.532Z" fill="#2F2E41"/>
<path id="Vector_29" d="M727.096 681.74C724.799 682.263 722.406 681.993 720.264 680.967L712.803 677.394C706.547 677.052 702.287 678.378 698.804 673.54C697.821 672.157 697.204 670.519 697.016 668.797C696.829 667.075 697.078 665.33 697.738 663.745V663.745C698.392 662.154 699.432 660.777 700.751 659.756C702.07 658.734 703.621 658.105 705.244 657.932L715.492 651.059L716.03 656.211C720.714 659.035 726.275 657.816 732.167 655.066L735.384 667.048C735.798 668.593 735.91 670.212 735.713 671.805C735.515 673.398 735.012 674.93 734.235 676.308C733.458 677.686 732.424 678.878 731.195 679.813C729.967 680.747 728.572 681.403 727.096 681.74Z" fill="#2F2E41"/>
<path id="Vector_30" d="M854.661 657.162C852.649 658.451 850.302 659.022 847.964 658.792L839.816 657.991C833.795 659.83 830.171 662.557 825.4 659.185C824.049 658.217 822.966 656.881 822.263 655.317C821.56 653.753 821.263 652.017 821.404 650.289C821.537 648.559 822.1 646.897 823.036 645.475C823.972 644.053 825.247 642.921 826.73 642.197L834.325 632.155L836.406 636.842C841.698 637.894 846.585 634.818 851.319 630.182L858.017 640.402C858.881 641.72 859.481 643.213 859.78 644.788C860.079 646.362 860.071 647.986 859.756 649.557C859.442 651.129 858.827 652.615 857.951 653.923C857.074 655.231 855.954 656.334 854.661 657.162V657.162Z" fill="#2F2E41"/>
<path id="Vector_31" d="M743.835 268.462C757.709 268.462 768.955 256.492 768.955 241.726C768.955 226.961 757.709 214.991 743.835 214.991C729.962 214.991 718.716 226.961 718.716 241.726C718.716 256.492 729.962 268.462 743.835 268.462Z" fill="#FFB8B8"/>
<path id="Vector_32" d="M774.537 298.167L741.742 290.741L737.556 261.778L760.582 256.58L774.537 298.167Z" fill="#FFB8B8"/>
<path id="Vector_33" d="M765.466 377.63H706.854L720.065 342.328C719.105 330.18 723.942 321.246 730.866 313.468L739.649 289.998C753.84 280.057 764.54 280.8 775.933 293.711C789.441 314.067 780.091 344.667 765.466 377.63Z" fill="#28BAEE"/>
<path id="Vector_34" d="M738.951 452.637L737.284 472.152C736.689 479.117 733.252 483.927 726.846 482.368C725.322 481.997 723.891 481.28 722.651 480.266C721.411 479.252 720.391 477.965 719.662 476.492C718.933 475.02 718.512 473.397 718.426 471.736C718.341 470.074 718.594 468.412 719.168 466.864L724.996 451.151L741.742 378.372L738.951 325.645H766.862L763.373 382.086L738.951 452.637Z" fill="#FFB8B8"/>
<path id="Vector_35" d="M768.955 327.13H736.858L739.108 304.845C739.256 300.991 740.752 297.335 743.303 294.595C745.854 291.855 749.276 290.228 752.896 290.036V290.036C754.814 289.934 756.732 290.238 758.539 290.93C760.346 291.622 762.007 292.689 763.424 294.068C764.841 295.448 765.987 297.113 766.796 298.967C767.604 300.821 768.06 302.827 768.135 304.87L768.955 327.13Z" fill="#28BAEE"/>
<path id="Vector_36" d="M774.925 214.237C780.139 214.237 784.366 209.738 784.366 204.188C784.366 198.638 780.139 194.139 774.925 194.139C769.71 194.139 765.483 198.638 765.483 204.188C765.483 209.738 769.71 214.237 774.925 214.237Z" fill="#2F2E41"/>
<path id="Vector_37" d="M765.196 201.728C765.351 199.178 766.413 196.787 768.167 195.042C769.92 193.297 772.233 192.329 774.633 192.335C774.438 192.309 774.245 192.277 774.046 192.263C771.548 192.094 769.089 192.987 767.209 194.747C765.33 196.507 764.184 198.989 764.023 201.647C763.863 204.306 764.701 206.924 766.353 208.925C768.005 210.926 770.337 212.148 772.835 212.32C773.033 212.334 773.229 212.328 773.425 212.329C771.044 212.008 768.867 210.732 767.338 208.763C765.809 206.793 765.043 204.277 765.196 201.728V201.728Z" fill="#2F2E41"/>
<path id="Vector_38" d="M765.142 206.019C756.722 198.584 732.569 208.033 731.011 213.032C719.624 214.683 711.003 221.754 711.003 234.327V234.327C717.772 237.278 725.472 236.915 733.795 234.327C747.063 245.834 747.972 260.301 739.903 276.917L749.83 277.128L762.135 257.988L762.723 277.403L785.478 276.917V249.094C785.552 239.844 783.551 230.708 779.642 222.445C776.097 215.113 770.594 210.832 765.142 206.019Z" fill="#2F2E41"/>
<path id="Vector_39" d="M743.953 255.175C746.447 255.175 748.468 252.163 748.468 248.447C748.468 244.732 746.447 241.72 743.953 241.72C741.46 241.72 739.438 244.732 739.438 248.447C739.438 252.163 741.46 255.175 743.953 255.175Z" fill="#FFB8B8"/>
<path id="Vector_40" d="M175.85 256.984C175.85 256.984 178.568 206.916 192.677 218.293C206.787 229.669 186.515 261.628 186.515 261.628L175.85 256.984Z" fill="#FFB9B9"/>
<path id="Vector_41" d="M123.354 405.501C123.354 405.501 154.697 442.95 137.162 445.524C119.626 448.098 112.728 410.244 112.728 410.244L123.354 405.501Z" fill="#FFB9B9"/>
<path id="Vector_42" d="M82.4546 228.233C86.3884 229.335 89.9287 231.649 92.6309 234.886C95.333 238.122 97.0765 242.135 97.6425 246.423L107.612 321.948L121.589 382.193C121.589 382.193 128.577 388.887 125.782 392.606C122.986 396.325 129.276 411.944 129.276 411.944L111.805 417.894C111.805 417.894 109.709 402.275 106.215 401.531C103.144 400.878 68.7691 303.144 60.4834 279.468C59.3409 276.204 58.6945 274.347 58.6945 274.347C58.6945 274.347 60.0922 224.514 82.4546 228.233Z" fill="#575A89"/>
<path id="Vector_43" d="M85.6457 622.09L96.3766 642.329C104.687 661.212 97.302 664.642 76.9268 655.282L72.2823 631.384L85.6457 622.09Z" fill="#FFB9B9"/>
<path id="Vector_44" d="M91.0601 648.989C91.0601 648.989 96.1542 640.162 97.9967 641.64C99.8392 643.117 107.439 649.52 107.439 649.52L117.338 659.61C117.338 659.61 150.781 663.374 129.53 675.845C108.279 688.317 96.5356 677.976 96.5356 677.976C96.5356 677.976 66.7716 679.623 67.2517 670.785C67.7318 661.947 77.3309 647.964 77.3309 647.964C77.3309 647.964 89.429 656.597 91.0601 648.989Z" fill="#2F2E41"/>
<path id="Vector_45" d="M38.0271 393.311L48.0874 522.869C48.0874 522.869 48.4228 600.318 59.1537 615.308C69.8847 630.299 70.22 637.794 70.22 637.794L92.3526 625.659C92.3526 625.659 80.9509 605.438 83.2983 602.343C84.7453 600.38 85.775 598.106 86.3164 595.678L80.2802 515.731L91.6819 376.537L38.0271 393.311Z" fill="#2F2E41"/>
<path id="Vector_46" d="M65.5248 622.09L56.1352 648.501L34.8409 639.026L46.0751 619.234L65.5248 622.09Z" fill="#FFB9B9"/>
<path id="Vector_47" d="M49.8605 639.605C49.8605 639.605 57.847 634.293 58.8453 636.418C59.8436 638.543 63.8368 647.574 63.8368 647.574L68.3292 660.855C68.3292 660.855 95.7826 679.449 72.3224 680.512C48.8622 681.574 42.8724 667.23 42.8724 667.23C42.8724 667.23 16.4173 655.012 20.4105 647.574C24.4038 640.136 38.38 632.423 38.38 632.423C38.38 632.423 45.3682 645.449 49.8605 639.605Z" fill="#2F2E41"/>
<path id="Vector_48" d="M123.204 393.668L128.57 512.876C128.57 512.876 79.6096 620.662 74.2441 623.517C72.6453 624.396 71.2281 625.607 70.0762 627.078C68.9242 628.549 68.0609 630.251 67.5372 632.083L38.0271 624.231L51.4408 601.389L80.951 525.011C80.951 525.011 85.6457 522.869 86.9871 515.731C88.3285 508.593 91.0112 508.593 84.3044 507.165C77.5975 505.738 77.5975 498.599 77.5975 498.599L55.4649 390.099L123.204 393.668Z" fill="#2F2E41"/>
<path id="Vector_49" d="M125.54 182.669C127.914 167.104 117.982 152.438 103.357 149.912C88.7317 147.386 74.9518 157.957 72.5785 173.522C70.2051 189.088 80.1371 203.754 94.7622 206.28C109.387 208.806 123.167 198.235 125.54 182.669Z" fill="#FFB9B9"/>
<path id="Vector_50" d="M75.2501 179.88C75.2501 179.88 73.2381 216.285 70.5554 219.854C67.8726 223.423 98.7241 222.709 98.7241 222.709C98.7241 222.709 96.7121 192.015 98.7241 189.16C100.736 186.305 75.2501 179.88 75.2501 179.88Z" fill="#FFB9B9"/>
<path id="Vector_51" d="M125.214 401.521C125.214 401.521 49.4261 394.385 35.3453 401.521C35.3453 401.521 40.5289 381.055 39.1895 378.917C38.2154 377.352 40.9028 319.055 40.0592 285.426C39.5809 266.45 35.4671 247.918 47.4258 233.83C51.4961 229.044 56.036 225.027 60.8282 223.064C60.8282 223.064 59.4888 209.503 66.1944 208.791C66.1944 208.791 91.6859 205.93 101.07 214.502C104.071 217.223 105.958 225.517 106.158 232.663C101.514 256.971 103.158 283.945 107.419 311.927C107.68 313.704 107.967 315.491 108.254 317.277C112.777 345.029 119.613 373.641 125.214 401.521Z" fill="#575A89"/>
<path id="Vector_52" d="M85.0444 186.509C87.3132 186.365 89.5285 187.181 91.7815 187.5C99.8423 188.639 108.228 182.413 110.008 173.968C110.151 172.844 110.465 171.752 110.94 170.736C112.181 168.58 115.006 168.169 117.335 168.665C119.664 169.16 121.872 170.321 124.244 170.453C127.906 170.658 131.422 168.258 133.374 164.953C135.219 161.544 136.003 157.602 135.615 153.689L133.859 155.65C133.146 154.044 132.871 152.257 133.065 150.492C132.134 150.228 131.156 150.223 130.223 150.477C129.29 150.731 128.434 151.236 127.737 151.943C126.189 152.118 127.358 148.887 126.207 147.77C125.648 147.404 124.981 147.271 124.336 147.397C121.042 147.431 118.378 144.75 115.783 142.592C111.286 138.86 106.027 136.308 100.432 135.139C96.7132 134.367 92.7586 134.243 89.2317 135.717C86.3846 137.078 83.8151 139.018 81.6678 141.428C76.1461 147.079 71.2566 153.718 68.9594 161.496C67.0919 167.867 67.039 174.683 68.8074 181.086C69.733 184.411 72.5226 195.798 76.6065 196.063C81.7381 196.397 78.6571 186.915 85.0444 186.509Z" fill="#2F2E41"/>
<path id="Vector_53" d="M96.1488 231.738L105.76 232.834C105.76 232.834 115.195 252.315 114.51 256.379C113.825 260.443 112.333 257.976 116.579 264.477C120.826 270.978 132.876 287.783 134.368 290.25C135.86 292.717 176.539 259.684 174.01 249.786C174.01 249.786 186.858 259.596 192.362 260.902C192.362 260.902 150.439 319.42 144.597 326.908C138.755 334.397 134.053 332.859 126.024 328.419C117.995 323.979 77.3782 279.689 77.3782 279.689L96.1488 231.738Z" fill="#575A89"/>
<path id="Vector_54" opacity="0.1" d="M108.254 317.277L74.8481 281.723L83.3018 278.789L107.419 311.927C107.68 313.704 107.967 315.491 108.254 317.277Z" fill="black"/>
</g>
<defs>
<clipPath id="clip0">
<rect width="840" height="675" fill="white" transform="translate(20 7)"/>
</clipPath>
</defs>
</svg>
